<svg width="472" height="504" viewBox="0 0 472 504" fill="none" xmlns="http://www.w3.org/2000/svg">
<path d="M264.745 381.528C264.564 381.581 264.409 381.71 264.317 381.885C264.224 382.059 264.199 382.267 264.25 382.46C264.3 382.654 264.42 382.819 264.584 382.918C264.747 383.017 264.941 383.043 265.123 382.99C271.087 381.595 276.678 378.778 281.478 374.749C299.72 360.36 298.776 339.948 309.16 321.275C317.468 307.037 324.76 308.675 324.194 306.835C324.172 306.762 324.138 306.695 324.091 306.637C324.045 306.58 323.987 306.533 323.923 306.5C323.859 306.467 323.789 306.448 323.718 306.445C323.647 306.442 323.576 306.455 323.509 306.482C290.847 319.309 309.302 365.047 264.745 381.528ZM396.929 336.722C397.849 335.689 398.77 334.606 399.666 333.522C406.605 324.526 411.466 310.59 410.994 300.334C410.982 300.223 410.942 300.118 410.878 300.03C410.814 299.943 410.728 299.876 410.631 299.836C410.533 299.797 410.427 299.788 410.325 299.809C410.222 299.83 410.127 299.881 410.05 299.956C409.342 300.686 411.325 304.718 406.345 317.419C401.625 329.465 397.495 332.539 392.846 338.159C388.681 343.294 385.515 349.263 383.534 355.718C381.552 362.174 380.795 368.986 381.306 375.757C381.333 375.9 381.405 376.028 381.51 376.12C381.616 376.212 381.748 376.262 381.884 376.262C382.02 376.262 382.152 376.212 382.257 376.12C382.363 376.028 382.435 375.9 382.462 375.757C382.3 368.547 383.498 361.377 385.983 354.671C388.468 347.965 392.19 341.861 396.929 336.722ZM189.721 227.909C192.081 226.17 191.916 220.853 189.721 218.887C189.1 218.352 188.377 217.97 187.602 217.768C186.827 217.565 186.02 217.547 185.238 217.716C184.456 217.884 183.719 218.235 183.078 218.742C182.438 219.249 181.909 219.901 181.532 220.651C181.094 221.824 181.015 223.114 181.306 224.337C181.598 225.561 182.245 226.654 183.154 227.46C184.064 228.266 185.19 228.744 186.369 228.824C187.549 228.905 188.722 228.584 189.721 227.909ZM183.231 222.138C183.939 219.265 188.588 218.862 189.296 221.735C189.768 223.7 189.556 225.086 188.612 225.842C188.044 226.219 187.399 226.441 186.732 226.49C186.066 226.538 185.398 226.411 184.788 226.12C184.15 225.737 183.649 225.137 183.367 224.415C183.085 223.694 183.037 222.892 183.231 222.138ZM270.362 181.289C270.271 181.282 270.18 181.295 270.095 181.327C270.009 181.36 269.93 181.411 269.864 181.477C269.797 181.543 269.745 181.623 269.708 181.712C269.672 181.801 269.654 181.897 269.654 181.994C269.654 184.514 265.666 187.034 264.934 187.286C264.793 187.323 264.672 187.418 264.597 187.55C264.521 187.683 264.498 187.842 264.533 187.992C264.567 188.142 264.656 188.272 264.78 188.352C264.904 188.433 265.053 188.457 265.194 188.42C271.4 187.06 272.344 181.238 270.362 181.289ZM262.078 177.433C261.795 177.257 260.544 176.274 260.096 175.896C260.096 175.568 261.205 171.36 261.418 170.554C261.63 169.747 260.662 169.546 260.403 170.201C259.415 172.244 258.625 174.388 258.043 176.602C258.232 177.332 261.512 178.29 261.748 178.29C261.846 178.304 261.946 178.283 262.032 178.231C262.118 178.178 262.185 178.096 262.223 177.998C262.261 177.9 262.267 177.791 262.241 177.689C262.215 177.587 262.158 177.497 262.078 177.433ZM254.29 163.926C254.256 163.708 254.151 163.51 253.994 163.367C253.836 163.225 253.636 163.146 253.429 163.146C253.222 163.146 253.022 163.225 252.864 163.367C252.707 163.51 252.601 163.708 252.568 163.926C252.478 165.663 252.478 167.405 252.568 169.142C252.715 169.401 252.94 169.599 253.205 169.706C253.47 169.813 253.761 169.822 254.032 169.732C254.303 169.643 254.538 169.459 254.7 169.211C254.863 168.963 254.942 168.664 254.928 168.361C254.601 166.904 254.388 165.421 254.29 163.926ZM270.787 168.336C270.484 166.891 270.271 165.426 270.15 163.951C270.15 163.704 270.058 163.467 269.894 163.292C269.73 163.117 269.508 163.019 269.276 163.019C269.045 163.019 268.823 163.117 268.659 163.292C268.495 163.467 268.403 163.704 268.403 163.951C268.318 165.63 268.318 167.312 268.403 168.991C268.416 169.186 268.47 169.376 268.559 169.547C268.648 169.717 268.772 169.865 268.921 169.979C269.069 170.093 269.24 170.171 269.42 170.207C269.6 170.244 269.785 170.237 269.963 170.188C270.14 170.139 270.305 170.05 270.446 169.925C270.588 169.801 270.702 169.645 270.78 169.468C270.859 169.291 270.9 169.098 270.901 168.903C270.903 168.707 270.863 168.514 270.787 168.336Z" fill="black"/>
<path d="M455.48 134.014C455.315 118.314 450.382 112.115 435.16 112.594C430.818 112.594 353.386 113.425 347.84 113.627C344.122 113.628 340.444 114.443 337.032 116.021C335.073 116.853 324.831 122.321 323.698 125.219C322.471 127.285 323.91 186.153 323.698 198.299C322.058 197.302 320.372 196.394 318.647 195.577C318.336 193.922 317.674 192.365 316.713 191.024C315.752 189.683 314.516 188.595 313.101 187.841C310.93 186.934 308.145 188.017 306.541 186.379C304.936 184.741 307.815 183.859 308.122 181.339C308.112 179.592 307.922 177.851 307.555 176.148C306.133 167.013 304.146 157.989 301.608 149.134C299.484 141.851 297.266 135.677 291.153 131.721C291.153 119.473 289.997 47.7038 289.36 43.8986C288.731 40.1431 286.856 36.7556 284.077 34.3578C281.298 31.96 277.803 30.7127 274.232 30.845C273.996 30.845 111.581 30.845 111.392 31.0466C104.902 35.1794 103.156 44.4026 102.731 51.2066C102.589 54.6086 105.374 123.304 106.483 145.127C94.9901 145.379 36.9341 147.042 33.6065 148.932C26.0781 150.898 17.7473 156.492 16.1189 165.589C15.1041 171.436 17.1573 283.752 17.8417 289.069C18.3319 294.813 20.7351 300.178 24.6149 304.189C28.8393 308.146 34.5977 308.877 39.6717 309.078L147.359 306.911C136.833 332.363 124.703 368.449 116.679 390.903C116.641 390.967 116.621 391.041 116.621 391.117C116.621 391.193 116.641 391.267 116.679 391.331C118.85 393.609 121.221 395.659 123.759 397.455C119.912 411.491 120.337 412.272 119.487 413.406C112.195 422.957 103.392 428.526 94.7069 429.433C90.6713 429.912 86.6829 430.668 85.2669 434.851C84.1105 438.657 87.1785 441.202 90.7657 442.26C93.1257 442.941 109.221 446.746 111.605 447.048C113.717 447.426 115.884 446.911 117.646 445.612C119.345 444.276 124.939 437.22 127.086 435.103C123.192 455.263 120.478 448.837 129.753 453.147C129.882 453.22 130.026 453.263 130.172 453.27C130.319 453.277 130.465 453.25 130.601 453.19C130.736 453.129 130.857 453.038 130.956 452.921C131.054 452.805 131.127 452.667 131.169 452.517C132.821 447.477 144.007 418.673 148.562 411.189C149.671 441.63 149.483 440.043 149.884 440.169C151.465 440.597 153.188 441 154.958 441.378C154.958 445.612 155.076 449.946 155.406 454.684C155.406 454.835 155.217 455.087 155.029 455.49C149.176 469.199 142.615 474.793 135.488 478.17C132.325 479.682 127.959 481.749 128.077 486.411C128.077 490.443 131.948 491.728 135.7 491.577C141.341 491.375 148.633 490.569 151.937 490.392C161.377 489.787 161.613 487.872 165.625 479.229C166.545 477.238 167.631 474.869 168.245 473.71C169.354 487.872 167.891 489.964 169.708 489.863C174.64 489.586 176.788 491.022 176.788 489.132C176.977 483.941 179.148 463.529 180.281 458.514C180.281 457.935 179.903 457.607 179.337 457.481C180.045 452.794 181.697 443.571 181.909 441.882C183.089 441.706 184.269 441.504 185.189 441.277C185.449 441.277 185.189 442.613 189.178 425.049C217.828 437.119 248.39 440.017 275.813 433.138C276.781 437.145 283.79 464.461 287.613 476.431C288.916 480.342 290.651 484.073 292.782 487.545C293.324 488.099 294.245 489.082 295.142 489.082C296.038 489.082 297.03 487.746 297.266 486.385C297.502 485.025 293.797 445.284 292.546 430.945C298.153 429.462 303.59 427.324 308.759 424.57L316.405 451.685C316.629 452.089 316.966 452.408 317.369 452.597C317.771 452.785 318.219 452.834 318.649 452.737C319.079 452.64 319.47 452.401 319.766 452.054C320.062 451.707 320.248 451.269 320.299 450.803L319.568 418.32C323.141 415.834 326.562 413.107 329.81 410.155C331.285 411.678 332.944 412.983 334.742 414.036C334.927 414.145 335.145 414.172 335.348 414.111C335.552 414.049 335.724 413.905 335.828 413.709C337.791 410.54 339.993 407.548 342.412 404.763C341.94 408.013 341.02 414.666 340.902 416.733C340.899 416.866 340.921 416.999 340.967 417.122C341.014 417.246 341.083 417.359 341.171 417.453C341.26 417.547 341.365 417.622 341.481 417.671C341.597 417.72 341.721 417.744 341.846 417.741C344.352 417.657 346.855 418.006 349.257 418.774C341.563 422.73 338.047 426.082 338.519 428.854C339.44 433.804 340.735 438.666 342.389 443.394C343.663 447.325 344.985 451.408 348.95 453.121C367.122 461.337 394.12 455.339 412.363 447.149C427.844 440.673 430.11 430.189 428.741 415.372C428.458 412.549 425.39 412.222 418.947 412.398L434.641 391.205C439.361 385.182 435.255 385.384 433.768 373.565C435.19 375.814 436.897 377.841 438.842 379.588C438.958 379.685 439.091 379.755 439.233 379.794C439.375 379.833 439.523 379.84 439.668 379.815C440.305 379.689 439.81 380.041 445.662 368.802C445.774 368.597 445.816 368.358 445.781 368.124C445.747 367.89 445.638 367.676 445.474 367.517C442.901 365.249 436.694 359.957 436.694 359.957C439.894 359.149 443.046 358.139 446.134 356.933C446.871 356.73 447.537 356.307 448.056 355.713C448.574 355.119 448.923 354.38 449.061 353.581C449.368 351.616 449.391 312.027 449.439 306.634C449.439 305.752 448.117 305.5 447.975 306.457C445.214 326.441 432.541 343.073 416.351 348.037C416.87 345.795 418.192 340.931 417.46 339.595C414.791 337.801 411.951 336.315 408.988 335.16C411.938 333.371 418.758 328.709 419.254 327.273C419.561 326.441 418.05 287.557 417.98 283.299C417.968 283.123 417.905 282.956 417.798 282.822C417.692 282.687 417.549 282.592 417.389 282.55C417.229 282.508 417.06 282.521 416.908 282.588C416.755 282.654 416.627 282.771 416.54 282.921C411.971 292.555 405.211 300.812 396.881 306.936C395.914 307.642 388.952 311.598 388.409 312.127C386.663 313.917 388.834 316.109 389.754 317.495C390.415 318.453 392.681 321.703 393.129 322.384C384.822 323.467 382.627 320.418 382.202 322.384C381.386 324.951 380.285 327.404 378.922 329.692C379.408 331.901 380.031 334.072 380.786 336.193C379.403 336.436 377.992 336.436 376.609 336.193C376.362 336.137 376.105 336.18 375.887 336.316C375.669 336.451 375.505 336.668 375.429 336.924C374.768 339.217 374.249 341.133 373.777 342.922C370.916 337.741 367.764 332.751 364.337 327.978C362.661 314.32 356.62 298.368 343.852 296.251C353.457 291.967 359.759 280.955 361.269 269.791C365.8 269.791 431.266 269.59 433.91 269.791C448.235 270.22 454.631 264.373 455.976 248.775C456.519 242.55 455.48 135.148 455.48 134.014ZM129.588 434.045C129.647 433.778 129.61 433.497 129.483 433.258C129.356 433.02 129.149 432.842 128.903 432.76C126.992 432.004 125.529 433.793 124.467 435.078C121.778 438.573 118.826 441.826 115.64 444.805C113.87 445.713 93.2673 441.151 90.6949 440.295C89.3102 439.96 88.1057 439.054 87.3437 437.775C87.0457 436.845 87.0782 435.83 87.435 434.924C87.7918 434.018 88.448 433.284 89.2789 432.861C91.0961 431.676 92.4413 431.777 97.5389 430.769C102.637 429.761 107.687 428.778 116.561 419.857C117.797 418.593 118.948 417.237 120.006 415.8C121.48 419.298 123.96 422.202 127.086 424.091C131.274 426.077 135.952 426.563 140.42 425.477C138.06 430.517 131.547 446.267 129.918 451.08C128.62 450.526 127.299 450.022 126.001 449.619C127.462 444.501 128.66 439.302 129.588 434.045ZM336.843 296.05C333.523 296.202 330.227 296.708 327.002 297.562C316.431 298.838 305.803 299.494 295.165 299.527C293.608 289.447 294.08 291.312 293.679 288.515C293.513 287.305 293.277 285.642 294.103 285.113C305.408 279.72 317.161 274.831 328.418 269.565C330.778 271.404 330.967 271.177 331.179 271.026C331.28 270.91 331.336 270.757 331.336 270.598C331.336 270.439 331.28 270.286 331.179 270.169C330.258 269.175 329.289 268.233 328.276 267.347C319.216 258.696 312.906 247.245 310.222 234.587C310.191 234.437 310.105 234.306 309.983 234.223C309.861 234.14 309.714 234.113 309.573 234.146C309.432 234.179 309.31 234.271 309.232 234.401C309.155 234.531 309.129 234.689 309.16 234.839C311.16 248.003 317.536 259.956 327.12 268.506L294.575 282.87C293.635 283.165 292.807 283.775 292.215 284.609C290.586 284.136 289.115 283.184 287.967 281.862C281.831 276.595 279.377 280.199 271.447 286.902C270.681 287.52 269.955 288.193 269.276 288.918C265.084 284.937 260.907 280.939 256.745 276.923C255.683 275.26 246.006 239.627 242.042 225.313C245.107 217.379 250.051 210.431 256.391 205.153C257.123 207.544 258.047 209.862 259.152 212.083C260.922 213.898 263.211 213.016 265.429 212.436C264.818 213.791 264.466 215.261 264.393 216.763C264.32 218.264 264.528 219.766 265.005 221.181C266.675 225.181 269.285 228.653 272.58 231.261C280.651 238.821 280.25 238.619 280.722 238.619C280.94 238.607 281.146 238.512 281.303 238.349C281.459 238.187 281.555 237.969 281.572 237.737C282.374 228.942 285.017 226.523 292.475 223.726C296.553 222.304 300.004 219.339 302.178 215.389C304.351 211.439 305.097 206.777 304.275 202.281C309.208 202.321 314.122 201.642 318.883 200.265C319.108 200.21 319.304 200.063 319.428 199.856C319.552 199.648 319.593 199.396 319.544 199.156C319.544 198.727 319.379 198.223 319.261 197.694C353.693 215.561 374.674 271.228 346.897 291.917C343.875 294.077 340.441 295.489 336.843 296.05ZM344.772 298.923C350.838 300.309 355.912 305.752 359.216 315.328C374.981 360.814 338.235 415.926 292.616 428.728C292.333 425.679 290.776 407.988 290.469 406.678C290.243 405.521 289.62 404.497 288.722 403.805C285.82 402.091 280.84 403.981 278.197 405.645C275.677 407.431 273.425 409.614 271.518 412.121C271.518 412.927 274.822 428.123 275.53 431.223C246.846 437.628 217.032 434.894 189.791 423.36C193.992 404.712 199.562 379.185 201.119 371.272C217.356 376.665 240.177 376.161 240.413 376.135C240.489 376.114 240.556 376.067 240.603 376.001C240.651 375.934 240.677 375.853 240.677 375.77C240.677 375.687 240.651 375.606 240.603 375.539C240.556 375.473 240.489 375.426 240.413 375.405C227.315 370.743 216.011 358.722 208.601 341.536C197.202 315.857 173.555 316.159 164.351 328.936C151.04 347.382 148.893 401.058 148.68 407.535C147.854 409.147 143.111 419.051 141.317 423.083C127.157 426.687 123.121 418.043 121.399 414.339C121.115 413.709 121.257 415.372 125.647 398.815C128.007 400.05 144.786 406.375 144.81 404.511C144.999 383.091 149.86 332.136 163.029 320.418C172.469 312.153 192.883 313.589 201.922 320.746C207.668 326.346 212.369 333.059 215.775 340.528C223.351 357.891 236.401 370.768 250.892 373.993C269.465 372.255 291.012 340.654 297.171 320.443C308.546 305.046 327.308 296.226 344.772 298.923ZM381.707 401.411C381.738 401.561 381.824 401.692 381.945 401.775C382.067 401.858 382.215 401.885 382.355 401.852C382.496 401.819 382.619 401.727 382.696 401.597C382.774 401.467 382.8 401.309 382.769 401.159C381.282 393.045 377.081 386.039 374.438 378.479C369.859 365.551 373.187 351.666 377.057 338.537C378.784 338.881 380.568 338.634 382.155 337.831C383.453 336.748 382.414 334.908 380.951 330.271C382.155 328.328 383.1 326.217 383.76 323.997C387.448 324.929 391.284 324.98 394.993 324.148C395.137 324.109 395.271 324.034 395.382 323.929C395.494 323.824 395.581 323.693 395.636 323.546C395.691 323.398 395.713 323.239 395.7 323.081C395.687 322.923 395.639 322.77 395.56 322.636C393.978 320.418 389.801 314.345 389.589 313.891C389.377 313.438 389.589 313.488 390.273 313.161C401.554 307.679 410.804 298.343 416.564 286.625C416.847 294.865 417.767 325.534 417.508 326.769C413.841 329.603 409.975 332.13 405.944 334.329C405.768 334.432 405.625 334.59 405.532 334.78C405.44 334.971 405.403 335.187 405.426 335.4C405.449 335.613 405.53 335.814 405.66 335.978C405.79 336.142 405.963 336.261 406.156 336.319C409.495 337.539 412.732 339.056 415.832 340.855C416.257 341.586 414.77 347.357 414.51 348.844L412.15 349.348C411.916 349.413 411.714 349.573 411.586 349.794C411.459 350.014 411.416 350.279 411.466 350.532C412.08 354.993 413.472 365.98 413.472 365.98C406.699 359.251 406.746 355.522 405.283 355.371C405.138 355.351 404.99 355.371 404.854 355.428C404.718 355.485 404.598 355.578 404.504 355.698C393.407 369.447 387.177 386.917 386.899 405.065C386.925 405.201 386.995 405.323 387.096 405.411C387.197 405.499 387.323 405.547 387.453 405.547C387.583 405.547 387.71 405.499 387.811 405.411C387.912 405.323 387.981 405.201 388.008 405.065C388.896 387.893 394.862 371.465 405.047 358.143C407.394 362.46 410.475 366.272 414.133 369.382C414.289 369.53 414.484 369.621 414.692 369.644C414.899 369.666 415.108 369.618 415.288 369.506C415.469 369.394 415.611 369.225 415.696 369.022C415.781 368.818 415.804 368.592 415.761 368.374C415.761 368.374 414.062 356.101 413.401 351.112C429.473 348.063 443.279 333.472 447.928 314.874C447.928 325.231 447.598 350.91 447.598 351.162C447.598 352.8 447.598 354.363 446.229 355.093C442.358 356.545 438.42 357.782 434.429 358.798C434.265 358.844 434.117 358.936 433.998 359.064C433.879 359.193 433.795 359.353 433.754 359.528C433.713 359.703 433.717 359.887 433.765 360.06C433.813 360.233 433.904 360.389 434.028 360.511C435.137 361.469 441.509 367.038 443.609 368.827C443.609 368.827 440.73 374.699 439.267 377.597C436.874 375.233 434.892 372.434 433.414 369.331C433.318 369.155 433.171 369.017 432.995 368.939C432.819 368.86 432.623 368.846 432.438 368.897C432.254 368.949 432.09 369.063 431.972 369.224C431.854 369.384 431.789 369.581 431.786 369.785C432.447 386.619 437.497 384.426 433.32 389.945C418.924 409.273 416.398 415.523 400.893 420.412C404.008 405.292 414.676 399.168 418.947 388.257C421.307 382.284 420.788 375.657 422.652 369.659C423.95 365.496 426.072 361.681 428.874 358.472C431.676 355.263 435.092 352.736 438.889 351.061C439.027 351.011 439.14 350.905 439.205 350.765C439.269 350.626 439.278 350.465 439.232 350.318C439.185 350.171 439.085 350.05 438.954 349.981C438.824 349.913 438.673 349.902 438.535 349.953C433.59 351.816 429.225 355.109 425.929 359.465C422.633 363.821 420.535 369.069 419.868 374.623C418.853 382.36 419.065 386.165 414.534 392.944C409.531 400.378 401.342 406.955 398.699 421.042C394.594 422.133 390.394 422.758 386.167 422.907C385.671 418.396 383.075 415.75 381.234 415.649C379.535 412.474 361.623 383.368 355.015 376.992C362.322 362.95 365.682 346.956 364.691 330.927C367.523 335.387 372.361 343.753 373.21 345.391C364.974 379.311 378.426 384.401 381.707 401.411ZM344.489 402.52C344.489 402.342 344.44 402.168 344.35 402.019C344.26 401.869 344.132 401.751 343.98 401.676C343.829 401.602 343.661 401.576 343.496 401.6C343.331 401.625 343.176 401.699 343.05 401.814C340.032 405.013 337.291 408.496 334.86 412.222C333.471 411.356 332.166 410.343 330.967 409.198C336.67 403.905 341.843 397.993 346.401 391.558C371.464 423.663 370.261 422.73 370.969 422.125C371.024 422.085 371.071 422.033 371.108 421.973C371.144 421.913 371.168 421.845 371.179 421.774C371.19 421.704 371.188 421.631 371.172 421.562C371.156 421.492 371.127 421.427 371.087 421.369C369.435 418.698 352.608 396.169 347.487 389.844C349.918 386.256 352.141 382.511 354.142 378.63C363.582 388.483 378.237 414.414 379.606 416.859C378.303 418.86 377.694 421.284 377.883 423.713C374.902 424.602 371.769 424.749 368.727 424.141C365.116 423.385 351.617 416.304 342.767 416.027C343.333 413.28 344.23 404.889 344.56 402.52H344.489ZM282.705 405.72H283.106C284.947 405.267 287.826 404.586 288.51 406.577C288.864 407.938 295.991 483.109 295.991 485.428C296.029 485.793 295.992 486.163 295.882 486.511C295.772 486.859 295.592 487.178 295.354 487.444C289.218 484.924 274.114 418.068 273.524 412.398C275.903 409.257 279.096 406.934 282.705 405.72ZM31.4117 286.726C31.4117 280.955 27.8245 166.547 28.1785 162.414C28.7921 154.627 31.4117 151.125 37.1937 150.318C43.3061 149.058 100.371 147.319 106.601 147.143C106.743 149.663 106.861 151.427 106.908 151.755C107.17 153.737 108.055 155.566 109.419 156.94C110.783 158.314 112.544 159.151 114.413 159.315C114.413 159.063 112.855 159.315 161.613 159.491C161.613 167.353 162.061 204.297 162.085 206.035C148.208 206.59 133.907 207.195 131.169 207.472C130.791 207.472 130.461 208.203 130.603 208.555C134.709 219.391 152.999 263.391 158.12 274.68C158.598 275.963 159.419 277.067 160.48 277.855C161.141 278.914 161.92 280.098 162.84 281.283C155.359 287.658 152.669 294.714 148.326 305.046C128.337 305.5 47.3181 307.289 45.5009 307.213C40.4505 306.987 36.8869 305.424 34.6685 302.451C31.2937 298.167 31.4353 292.32 31.4117 286.726ZM304.44 186.077C304.936 187.992 306.8 189.025 309.679 189.101C314.635 188.874 316.759 193.435 317.656 198.677C312.832 199.684 307.938 200.265 303.024 200.416C302.882 200.417 302.742 200.454 302.615 200.523C302.489 200.592 302.379 200.692 302.294 200.814C302.209 200.936 302.153 201.077 302.128 201.227C302.103 201.376 302.111 201.53 302.151 201.676C302.904 204.552 302.912 207.594 302.172 210.474C301.432 213.355 299.973 215.967 297.95 218.031C291.602 224.557 281.43 220.954 279.943 235.998C277.819 234.033 269.961 226.901 268.356 224.809C265.595 221.407 264.485 215.763 267.317 212.209C273.382 211.151 279.51 210.57 285.655 210.471C285.792 210.471 285.924 210.412 286.022 210.308C286.119 210.204 286.174 210.063 286.174 209.916C286.174 209.769 286.119 209.628 286.022 209.524C285.924 209.42 285.792 209.362 285.655 209.362C278.586 208.827 271.481 209.37 264.556 210.975C261.913 211.756 260.615 212.31 259.435 209.664C258.845 208.329 255.329 196.888 254.715 194.771C253.629 192.024 254.29 192.856 256.272 191.545C258.215 193.298 260.395 194.726 262.739 195.779C262.739 196.081 263.966 200.088 264.155 200.819C264.235 201.425 264.519 201.978 264.953 202.377C265.387 202.776 265.942 202.992 266.515 202.986C272.018 203.526 277.563 202.666 282.695 200.475C287.827 198.285 292.4 194.828 296.039 190.386C296.111 190.281 296.144 190.15 296.131 190.02C296.119 189.89 296.061 189.769 295.97 189.681C295.879 189.594 295.761 189.545 295.639 189.545C295.516 189.545 295.398 189.593 295.307 189.681C291.652 193.625 287.26 196.705 282.418 198.72C277.575 200.734 272.39 201.638 267.199 201.373C265.547 201.247 265.76 201.625 264.367 196.333C270.739 198.249 272.344 195.653 270.079 198.047C270.005 198.141 269.964 198.26 269.963 198.383C269.962 198.506 270.001 198.625 270.074 198.72C270.146 198.816 270.248 198.881 270.361 198.905C270.473 198.93 270.591 198.911 270.692 198.853C279.277 192 285.539 182.35 288.534 171.36C288.555 171.289 288.563 171.214 288.557 171.14C288.551 171.065 288.531 170.993 288.498 170.927C288.465 170.861 288.419 170.803 288.365 170.756C288.31 170.709 288.247 170.675 288.18 170.655C286.953 170.201 287.779 172.797 282.02 182.851C279.66 172.771 281.241 162.112 278.692 151.981C278.658 151.838 278.572 151.714 278.452 151.639C278.333 151.563 278.19 151.541 278.055 151.578C277.921 151.615 277.805 151.707 277.735 151.835C277.664 151.962 277.643 152.115 277.678 152.259C278.091 154.402 278.359 156.575 278.48 158.76C273.453 153.443 262.833 144.951 254.455 146.891C252.65 146.95 250.94 147.766 249.694 149.162C248.449 150.559 247.768 152.422 247.8 154.35C245.771 151.427 247.186 146.967 249.027 144.497C253.889 137.718 262.527 134.417 271.141 131.897C278.763 129.73 288.959 130.032 294.741 137.391C297.249 141.063 299.061 145.223 300.074 149.638C303.089 159.586 305.191 169.823 306.352 180.205C306.442 180.624 306.423 181.061 306.299 181.469C306.174 181.878 305.947 182.242 305.644 182.524C305.173 182.954 304.814 183.508 304.603 184.131C304.392 184.754 304.336 185.424 304.44 186.077ZM159.843 274.075C157.625 269.035 135.7 217.123 132.207 208.555C140.019 208.555 228.165 205.103 229.699 205.053C232.696 215.334 250.16 277.427 250.16 277.956C250.16 277.956 229.298 278.511 218.041 278.989C199.043 268.758 181.461 269.867 168.669 277.099C161.448 276.772 161.117 276.923 159.843 274.075ZM249.523 169.546C249.193 161.986 249.523 156.719 250.632 156.19C254.691 154.224 262.267 153.67 270.692 156.517C271.754 156.895 275.153 158.785 278.575 160.323C278.952 168.387 278.575 176.929 280.935 184.741C278.848 188.647 276.169 192.156 273.005 195.124C258.727 197.14 250.16 184.943 249.476 169.546H249.523ZM271.188 320.242C270.621 321.401 280.227 329.112 281.265 329.944C284.663 333.371 280.51 335.236 277.064 331.935C258.184 313.816 242.089 293.051 221.109 280.653C233.333 280.224 248.461 279.745 251.057 279.72C253.676 282.417 284.097 312.833 291.956 320.04C270.008 320.217 271.4 319.839 271.141 320.242H271.188ZM294.363 319.889C294.127 319.662 254.243 281.182 252.709 279.267C251.812 277.654 235.269 217.703 231.469 205.632C233.8 207.33 235.529 209.815 236.378 212.688C237.794 216.997 253.865 274.453 253.936 274.731C254.129 276.126 254.713 277.426 255.612 278.46C261.818 284.836 288.156 310.338 296.723 317.898C296.227 318.553 295.732 319.209 295.26 319.889H294.363ZM292.64 295.672C288.534 295.319 287.236 294.815 286.221 296.151C285.891 296.705 284.947 297.94 283.743 297.663C283.534 297.611 283.338 297.513 283.166 297.377C282.994 297.24 282.85 297.067 282.744 296.868C282.638 296.669 282.571 296.449 282.548 296.222C282.525 295.994 282.546 295.764 282.61 295.546C283.767 294.387 284.97 293.379 286.056 292.144C286.114 292.057 286.143 291.951 286.138 291.845C286.134 291.738 286.096 291.636 286.031 291.555C285.966 291.473 285.877 291.418 285.779 291.397C285.681 291.376 285.579 291.39 285.489 291.438C284.286 292.27 283.129 293.605 281.761 294.487C281.648 294.489 281.536 294.517 281.434 294.569C281.332 294.621 281.242 294.697 281.171 294.79C280.888 294.912 280.582 294.963 280.278 294.939C279.974 294.915 279.679 294.816 279.416 294.65C279.154 294.485 278.93 294.256 278.764 293.983C278.597 293.71 278.492 293.4 278.456 293.076C278.456 291.06 280.486 289.725 281.666 288.238C282.138 287.734 281.43 286.978 280.935 287.457C279.67 288.597 278.494 289.844 277.418 291.186C276.058 291.648 274.671 292.01 273.265 292.27C272.627 292.27 273.265 292.698 270.48 290.153C273.383 287.245 276.545 284.646 279.92 282.391C285.655 278.359 286.717 285.34 291.885 286.146C291.88 289.339 292.133 292.526 292.64 295.672ZM297.95 316.437L274.185 293.757C275.047 293.575 275.898 293.339 276.734 293.051C276.715 293.598 276.815 294.143 277.027 294.641C277.239 295.14 277.557 295.579 277.955 295.923C278.354 296.268 278.822 296.509 279.322 296.627C279.823 296.745 280.343 296.738 280.84 296.604C280.935 297.139 281.146 297.642 281.457 298.073C281.768 298.503 282.17 298.849 282.63 299.083C283.09 299.316 283.595 299.43 284.105 299.415C284.614 299.401 285.112 299.258 285.56 298.998C288.817 297.411 285.56 296.806 290.823 297.31C291.507 297.31 292.239 297.461 292.947 297.486C293.159 298.671 293.372 299.754 293.608 300.787C293.664 300.994 293.783 301.174 293.945 301.302C294.107 301.429 294.303 301.496 294.505 301.493C336.701 300.535 315.981 294.311 297.903 316.437H297.95ZM241.31 222.592C238.643 213.041 237.251 205.33 231.87 203.364C231.87 203.667 233.876 203.037 164.02 205.884C164.02 193.612 163.525 163.926 163.454 159.415H248.06C247.399 170.327 248.06 182.095 255.14 190.21C254.29 190.563 252.78 191.319 252.426 191.949C253.296 196.021 254.464 200.015 255.919 203.893C249.587 208.665 244.521 215.107 241.216 222.592H241.31ZM231.611 144.699C231.611 141.171 230.855 122.195 230.69 118.717H236.708C236.708 122.296 237.157 141.196 237.298 144.673C235.41 144.623 233.499 144.648 231.611 144.699ZM197.037 145.455C197.06 138.6 196.234 80.6402 196.116 73.0802H202.134C202.134 92.2322 202.653 140.137 202.748 145.354L197.037 145.455ZM159.796 82.8074H165.837C165.837 99.3638 166.333 141.171 166.451 146.135H160.74C160.763 139.936 159.937 89.7122 159.796 82.8074ZM108.56 150.646C108.23 148.504 105.492 81.3962 104.383 55.6922C104.123 47.7794 106.082 38.0522 111.062 33.5414C111.062 51.1814 113.186 148.529 113.658 157.349C112.269 156.921 111.036 156.049 110.124 154.851C109.213 153.653 108.667 152.185 108.56 150.646ZM325.09 129.705C324.896 128.06 325.265 126.395 326.129 125.017C327.976 123.464 329.96 122.105 332.052 120.96C329.692 125.496 330.306 124.236 331.557 203.868C329.61 202.284 327.585 200.812 325.491 199.458C325.255 186.757 325.137 140.591 325.161 129.705H325.09ZM345.717 157.702C346.813 156.04 348.27 154.686 349.964 153.755C351.657 152.825 353.536 152.346 355.44 152.359C365.045 152.359 368.538 164.556 370.426 174.485C372.078 182.272 372.196 191.445 377.506 197.795C402.191 221.685 404.056 188.345 419.065 189.63C423.785 190.21 426.924 194.821 430.299 198.148C431.742 199.878 433.765 200.931 435.93 201.077C438.096 201.223 440.228 200.451 441.863 198.929V234.738C436.057 234.738 362.331 234.159 354.236 234.259C352.265 229.855 349.944 225.64 347.298 221.659C347.581 218.61 345.835 160.423 345.787 157.702H345.717ZM355.157 235.973C366.013 236.149 434.901 236.351 442.052 236.351C442.062 237.311 442.117 238.27 442.217 239.224C442.234 239.427 442.321 239.616 442.46 239.755C442.599 239.895 442.781 239.974 442.972 239.98C444.364 239.98 443.727 242.273 443.491 173.931C443.491 173.763 443.429 173.603 443.318 173.485C443.208 173.367 443.058 173.301 442.901 173.301C442.745 173.301 442.595 173.367 442.484 173.485C442.373 173.603 442.311 173.763 442.311 173.931C442.311 178.416 442.052 193.234 442.028 196.157C441.487 197.068 440.751 197.829 439.88 198.377C439.01 198.926 438.031 199.247 437.022 199.313C436.014 199.379 435.005 199.19 434.078 198.759C433.152 198.329 432.334 197.67 431.691 196.837C424.871 189.277 418.121 182.977 408.257 192.705C400.185 201.6 395.749 209.11 384.657 201.424C380.165 198.868 376.78 194.549 375.217 189.378C371.488 175.09 372.526 153.04 356.761 150.117C354.654 149.887 352.525 150.212 350.563 151.064C348.6 151.917 346.863 153.27 345.504 155.005C345.504 151.175 345.244 147.445 345.103 143.565C345.103 143.404 345.043 143.25 344.937 143.137C344.831 143.024 344.687 142.96 344.537 142.96C344.386 142.96 344.242 143.024 344.136 143.137C344.03 143.25 343.97 143.404 343.97 143.565C343.97 147.748 345.197 206.161 345.575 218.988C341.938 213.906 337.756 209.297 333.114 205.254C333.114 195.653 332.312 133.308 332.217 129.453C332.076 122.447 334.695 118.39 340.737 116.701C345.693 115.24 434.807 113.778 443.279 115.013C448.896 115.769 452.105 121.641 452.908 126.731C453.899 133.056 454.182 237.611 454.206 238.997C454.395 251.345 453.026 265.432 440.99 267.171C438.276 267.574 371.134 267.75 361.387 267.649C361.688 256.718 359.57 245.865 355.204 235.973H355.157ZM286.056 39.8162C288.888 45.1082 287.283 43.6466 289.289 130.687C279.519 125.975 265.689 130.309 256.249 135.727V61.0598C256.249 60.4802 257.476 60.6566 249.169 60.6566C248.65 60.6566 248.697 55.4654 250.443 139.911C249.027 141.276 247.796 142.845 246.785 144.573H238.856C238.856 141.297 237.959 118.062 237.865 117.861C237.837 117.73 237.768 117.613 237.669 117.53C237.57 117.447 237.447 117.404 237.322 117.407C234.772 117.316 232.219 117.375 229.675 117.583C229.6 117.638 229.54 117.714 229.503 117.803C229.465 117.892 229.451 117.991 229.463 118.087C229.463 120.607 229.888 141.07 230.053 144.699L221.156 144.9C221.604 101.859 221.769 104.127 221.156 104.076C214.76 104.353 214.619 104.227 214.619 104.731V145.051L204.235 145.278C204.235 139.659 203.432 76.1546 203.267 72.4754C203.274 72.3097 203.222 72.1473 203.121 72.021C203.02 71.8947 202.878 71.814 202.724 71.795C202.724 71.795 195.337 71.795 195.101 72.047C194.417 72.6266 195.479 142.607 195.479 145.48L184.269 145.707V108.083C184.186 108.048 184.093 108.048 184.009 108.083C177.496 108.083 177.567 108.083 177.567 108.637V145.858L167.985 146.16C167.324 81.0938 166.781 82.2782 167.017 82.2782C167.018 82.1168 166.963 81.9606 166.863 81.8397C166.763 81.7188 166.625 81.6416 166.475 81.623C166.475 81.623 159.135 81.623 158.899 81.8246C158.097 82.3538 159.229 141.876 159.229 146.362L146.249 146.614C146.32 48.4094 146.58 52.9202 145.966 52.9202L140.184 53.147C139.783 53.147 139.925 47.1242 139.925 146.715C130.201 146.916 130.485 146.715 130.343 147.118C130.298 147.196 130.272 147.286 130.269 147.379C130.267 147.471 130.287 147.562 130.327 147.644C130.368 147.725 130.428 147.794 130.501 147.843C130.574 147.892 130.658 147.92 130.744 147.924C145.069 147.924 231.823 146.992 245.959 146.538C244.543 150.394 244.803 154.653 248.083 156.895V157.45C234.443 157.878 117.717 157.45 115.617 157.45C115.617 154.149 112.973 38.8586 112.95 32.4074C129.305 32.4074 273.43 32.6342 277.182 33.2894C279.022 33.6075 280.772 34.3581 282.307 35.4869C283.841 36.6156 285.122 38.0944 286.056 39.8162ZM28.8157 152.964C26.1017 157.147 25.9601 162.591 25.9601 167.857C25.9601 169.017 29.2641 293.051 29.7597 296.075C30.042 298.27 30.7608 300.374 31.8681 302.248C32.9753 304.121 34.4451 305.72 36.1789 306.936C33.4049 306.787 30.693 306.005 28.2257 304.643C22.9865 301.569 21.0041 295.243 20.2961 291.741C19.0453 285.441 17.3933 177.232 17.6765 171.637C17.5113 162.364 20.4613 157.349 28.7685 152.964H28.8157ZM382.816 437.951C392.262 437.248 401.515 434.756 410.144 430.593C416.28 427.569 423.927 422.781 427.089 418.975C427.585 430.87 425.319 438.556 413.873 444.175C398.722 451.735 362.779 461.009 347.25 449.946C345.858 448.51 342.531 437.598 341.209 432.558C347.982 437.371 367.712 439.236 382.769 437.951H382.816ZM169.377 470.963C167.395 470.787 166.451 472.903 165.79 474.441C160.268 487.041 160.339 487.847 154.722 488.25C152.952 488.376 136.29 489.838 135.063 489.838C130.768 490.165 128.384 487.015 131.429 483.16C133.164 481.762 135.09 480.657 137.14 479.884C143.701 476.633 154.085 468.04 156.374 457.405C158.743 460.377 161.974 462.417 165.554 463.201C169.986 463.709 174.457 462.732 178.345 460.404C177.449 465.847 175.372 482.807 175.112 488.124C173.732 487.97 172.346 487.902 170.959 487.923C170.935 486.486 170.487 471.064 169.33 470.963H169.377ZM178.062 457.985C174.995 460.301 171.316 461.511 167.56 461.437C165.573 461.278 163.639 460.683 161.877 459.69C160.114 458.697 158.563 457.328 157.318 455.667C157.318 454.885 157.058 446.443 157.129 441.907C164.775 442.551 172.451 442.711 180.115 442.386C179.738 444.604 178.534 453.6 178.015 457.985H178.062Z" fill="black"/>
<path d="M412.999 132.703C413.133 132.674 413.253 132.597 413.339 132.485C413.425 132.372 413.472 132.231 413.472 132.086C413.472 131.941 413.425 131.8 413.339 131.687C413.253 131.575 413.133 131.498 412.999 131.469H409.035C379.369 132.451 380.337 132.426 380.361 133.308C380.384 134.19 379.464 134.392 412.999 132.703ZM413.991 138.6C408.704 138.6 388.031 138.903 382.721 139.356C382.534 139.391 382.365 139.494 382.244 139.649C382.122 139.803 382.055 139.999 382.055 140.2C382.055 140.402 382.122 140.598 382.244 140.752C382.365 140.907 382.534 141.01 382.721 141.045C388.125 141.045 408.681 139.911 414.014 139.684C414.13 139.654 414.232 139.583 414.304 139.483C414.377 139.382 414.415 139.259 414.412 139.132C414.409 139.005 414.366 138.883 414.289 138.787C414.213 138.69 414.107 138.624 413.991 138.6ZM408.799 147.874C405.117 148.025 393.293 147.874 382.013 147.874C381.762 147.874 381.522 147.98 381.345 148.169C381.168 148.358 381.069 148.614 381.069 148.882C381.069 149.149 381.168 149.406 381.345 149.595C381.522 149.784 381.762 149.89 382.013 149.89C384.373 150.066 406.509 149.083 408.822 148.983C408.96 148.979 409.091 148.918 409.186 148.811C409.281 148.705 409.333 148.563 409.33 148.416C409.326 148.269 409.269 148.129 409.169 148.027C409.07 147.926 408.936 147.87 408.799 147.874ZM332.759 21.9494C329.994 22.6746 327.464 24.1873 325.44 26.3263C323.416 28.4653 321.974 31.1505 321.266 34.0958C318.647 44.8058 327.733 56.4734 338.187 54.6086C340.472 54.0934 342.634 53.0857 344.542 51.6471C346.449 50.2085 348.061 48.3693 349.279 46.2422C350.47 43.8945 351.146 41.2889 351.256 38.6218C351.366 35.9547 350.908 33.2956 349.917 30.845C348.501 26.5106 344.3 19.5806 332.759 21.9494ZM338.471 43.193C333.916 46.5446 328.582 40.4462 330.683 36.6914C334.459 29.9882 341.161 35.0534 341.326 37.5734C341.324 38.6923 341.059 39.7926 340.556 40.7742C340.053 41.7558 339.328 42.5873 338.447 43.193H338.471ZM338.187 31.727C336.595 31.1918 334.881 31.2355 333.314 31.851C331.746 32.4665 330.415 33.6193 329.526 35.129C328.8 36.4882 328.526 38.0697 328.749 39.6163C328.972 41.1628 329.678 42.5833 330.753 43.6466C331.61 44.5244 332.663 45.1529 333.812 45.4719C334.961 45.7909 336.167 45.7898 337.316 45.4687C338.464 45.1476 339.516 44.5172 340.371 43.6379C341.226 42.7585 341.856 41.6596 342.199 40.4462C344.213 41.8567 346.466 42.8326 348.831 43.319C347.995 45.4958 346.714 47.4452 345.08 49.0238C343.447 50.6024 341.503 51.7702 339.391 52.4414C329.951 55.3646 321.549 46.217 322.611 36.3386C322.922 34.0379 323.719 31.8428 324.941 29.9188C326.162 27.9948 327.777 26.3923 329.664 25.2323C331.55 24.0722 333.659 23.3849 335.83 23.2222C338.002 23.0594 340.18 23.4256 342.199 24.293C340.331 26.4018 338.949 28.9473 338.164 31.727H338.187Z" fill="black"/>
<path d="M311.519 65.2179C317.278 64.8903 422.723 64.0335 430.416 61.5891C436.34 60.4299 438.369 57.5067 438.063 51.1311C438.063 49.0143 438.393 24.7467 437.779 20.4375C437.237 15.1203 434.57 12.6003 428.953 12.2727C424.233 11.7939 314.847 13.6083 309.679 14.7927C305.478 15.6747 302.599 17.3127 302.032 22.3527C301.773 23.8899 302.905 52.3407 303.047 55.1127C303.377 61.1103 306.186 64.6635 311.519 65.2179ZM320.723 63.5043C319.334 63.3254 317.999 62.8189 316.815 62.0213C315.632 61.2237 314.629 60.155 313.879 58.8927C312.216 55.8334 311.36 52.35 311.401 48.8127C311.142 44.5287 310.387 28.6527 310.292 24.8223C310.292 23.2599 310.292 18.0687 313.879 16.2039C319.425 15.5991 422.746 13.9611 427.159 14.1123C429.519 14.1123 432.705 14.3139 434.499 16.2543C437.142 19.1019 436.293 23.8143 436.458 50.9043C436.977 57.8091 434.523 59.3211 428.481 60.2535C423.053 61.1355 321.667 63.5043 320.771 63.5043H320.723ZM308.687 21.6219C308.381 23.8899 309.631 45.5619 309.749 48.4347C310.033 55.5663 311.944 60.6315 315.72 63.5547H313.36C307.602 63.5547 304.982 60.6063 304.723 54.3315C304.581 50.7531 303.495 24.0915 303.731 22.5795C304.227 17.9931 307.13 16.9851 310.977 16.4811C309.784 17.9302 309.006 19.7145 308.735 21.6219H308.687Z" fill="black"/>
<path d="M364.384 28.1485C365.258 28.1485 392.35 27.4177 392.114 27.4177C392.236 27.3901 392.345 27.3188 392.424 27.2155C392.502 27.1123 392.545 26.9835 392.545 26.8507C392.545 26.7178 392.502 26.589 392.424 26.4858C392.345 26.3826 392.236 26.3112 392.114 26.2837C390.108 26.2837 366.721 25.8553 364.337 26.2837C364.155 26.354 363.999 26.4837 363.89 26.6543C363.781 26.8249 363.725 27.0278 363.731 27.2342C363.736 27.4406 363.802 27.64 363.919 27.8042C364.037 27.9683 364.199 28.0887 364.384 28.1485ZM400.422 36.0613C397.023 36.4141 362.898 35.1793 362.662 37.0189C362.662 37.3717 362.968 37.6489 363.204 37.6993C366.178 38.0773 400.304 37.2961 400.54 37.2709C400.614 37.2626 400.686 37.2388 400.752 37.2007C400.818 37.1627 400.876 37.1112 400.923 37.0492C400.97 36.9872 401.005 36.9158 401.027 36.8393C401.048 36.7628 401.055 36.6825 401.047 36.6031C401.039 36.5236 401.017 36.4466 400.981 36.3764C400.946 36.3062 400.898 36.2442 400.839 36.1939C400.781 36.1435 400.715 36.1059 400.643 36.0832C400.571 36.0604 400.496 36.053 400.422 36.0613ZM399.737 45.7381C393.908 45.7381 364.526 45.5869 362.992 45.8641C362.841 45.9068 362.707 46.0016 362.612 46.1338C362.517 46.266 362.465 46.4281 362.465 46.5949C362.465 46.7617 362.517 46.9238 362.612 47.0559C362.707 47.1881 362.841 47.283 362.992 47.3257C364.62 47.6029 397.354 46.7965 399.761 46.7209C399.865 46.6928 399.956 46.6278 400.021 46.5367C400.086 46.4456 400.119 46.3337 400.117 46.2194C400.114 46.1051 400.075 45.9952 400.006 45.9077C399.937 45.8203 399.842 45.7604 399.737 45.7381ZM66.0804 207.169C82.0576 205.783 90.53 183.809 78.1164 171.612C77.668 171.184 78.5176 170.226 65.4432 190.411C49.6312 174.409 50.4808 175.014 50.1268 175.291C37.6188 188.471 50.0088 208.58 66.0804 207.169Z" fill="black"/>
<path d="M64.3336 182.146C64.782 182.675 64.5696 182.751 75.2604 163.498C75.286 163.455 75.3034 163.407 75.3113 163.357C75.3192 163.307 75.3177 163.256 75.3066 163.206C75.2956 163.157 75.2754 163.11 75.2472 163.07C75.219 163.029 75.1833 162.994 75.1424 162.969C71.3724 160.85 67.053 160.119 62.8542 160.889C58.6555 161.659 54.812 163.887 51.92 167.227C51.6368 167.605 51.212 166.875 64.3336 182.146ZM39.6716 275.512C40.2769 275.508 40.8675 275.312 41.3691 274.95C41.8707 274.589 42.2608 274.076 42.4904 273.478C42.72 272.88 42.7788 272.223 42.6594 271.589C42.5399 270.956 42.2476 270.374 41.8192 269.917C42.9992 267.876 50.6456 254.445 52.8876 250.816C53.4686 251.103 54.1171 251.196 54.7486 251.084C55.38 250.971 55.9651 250.658 56.4276 250.186L67.3308 259.157C67.153 259.719 67.1213 260.321 67.2391 260.901C67.3568 261.48 67.6196 262.014 67.9994 262.447C68.3793 262.879 68.8619 263.194 69.3958 263.356C69.9297 263.519 70.495 263.524 71.0313 263.37C71.5676 263.217 72.0549 262.911 72.4412 262.485C72.8274 262.059 73.0982 261.529 73.2247 260.952C73.3511 260.375 73.3285 259.771 73.1591 259.207C72.9898 258.642 72.6802 258.137 72.2632 257.746L76.1336 252.303C76.8263 252.641 77.6117 252.694 78.339 252.453C79.0664 252.211 79.6845 251.691 80.0748 250.992L91.3556 255.075C91.2946 255.617 91.3615 256.166 91.5501 256.674C91.7388 257.181 92.0431 257.63 92.4356 257.98C92.8281 258.33 93.2962 258.569 93.7975 258.677C94.2988 258.784 94.8172 258.757 95.3058 258.596C95.7944 258.435 96.2375 258.146 96.595 257.756C96.9525 257.366 97.213 256.886 97.3528 256.361C97.4926 255.836 97.5073 255.282 97.3955 254.749C97.2837 254.216 97.0491 253.722 96.7128 253.311C97.6568 249.707 105.822 223.071 106.648 220.551C107.441 220.477 108.176 220.08 108.702 219.442C110.944 221.332 117.67 226.699 119.841 228.262C119.717 228.783 119.715 229.33 119.836 229.852C119.956 230.375 120.195 230.857 120.532 231.258C120.869 231.658 121.293 231.963 121.767 232.147C122.241 232.331 122.749 232.387 123.248 232.311C123.747 232.235 124.221 232.029 124.627 231.711C125.034 231.393 125.361 230.973 125.579 230.488C125.798 230.003 125.901 229.468 125.88 228.93C125.858 228.392 125.713 227.869 125.458 227.405C131.735 216.72 132.018 216.897 131.358 216.418C131.233 216.335 131.085 216.305 130.941 216.333C130.797 216.361 130.668 216.445 130.579 216.569C129.47 218.283 124.23 226.145 124.23 226.145C123.672 225.851 123.045 225.74 122.428 225.825C121.811 225.911 121.231 226.188 120.761 226.624C118.566 224.986 111.604 219.669 109.386 217.829C109.481 217.247 109.427 216.649 109.229 216.098C109.032 215.546 108.699 215.062 108.265 214.696C107.831 214.331 107.313 214.097 106.765 214.019C106.217 213.942 105.659 214.024 105.152 214.258C104.644 214.491 104.204 214.866 103.88 215.344C103.555 215.822 103.358 216.385 103.308 216.972C103.258 217.56 103.358 218.152 103.597 218.684C103.836 219.216 104.206 219.67 104.666 219.996C102.636 225.893 96.7364 246.305 95.226 252.252C94.6589 252.096 94.0622 252.112 93.5033 252.299C92.9445 252.486 92.4458 252.837 92.0636 253.311C89.7036 252.454 82.6236 250.161 80.476 249.43C80.476 248.568 80.1553 247.741 79.5843 247.131C79.0134 246.521 78.239 246.179 77.4316 246.179C76.6242 246.179 75.8498 246.521 75.2789 247.131C74.708 247.741 74.3872 248.568 74.3872 249.43C74.3923 250.149 74.6159 250.848 75.0244 251.421L70.8 257.04C70.3954 256.945 69.9768 256.941 69.5706 257.028C69.1644 257.115 68.7794 257.291 68.44 257.544L57.1828 248.447C57.3057 247.667 57.158 246.866 56.7673 246.194C56.3767 245.522 55.77 245.025 55.0608 244.796C54.3517 244.567 53.5888 244.622 52.915 244.951C52.2413 245.28 51.7029 245.86 51.4008 246.582C51.1661 247.101 51.0705 247.68 51.1246 248.254C51.1788 248.827 51.3805 249.374 51.7076 249.833C49.4892 253.386 41.4416 267.12 40.2852 269.111C39.8616 268.997 39.4201 268.982 38.9907 269.067C38.5612 269.152 38.1538 269.334 37.7962 269.602C37.4386 269.869 37.139 270.216 36.918 270.618C36.6969 271.021 36.5595 271.469 36.515 271.933C36.4706 272.397 36.5201 272.865 36.6602 273.307C36.8004 273.749 37.0279 274.153 37.3273 274.493C37.6268 274.832 37.9911 275.099 38.3956 275.275C38.8001 275.45 39.2353 275.531 39.6716 275.512ZM80.7356 284.433C80.5604 284.433 80.3923 284.507 80.2683 284.639C80.1444 284.772 80.0748 284.951 80.0748 285.138C80.0748 285.325 80.1444 285.505 80.2683 285.637C80.3923 285.769 80.5604 285.844 80.7356 285.844C84.8656 285.844 133.34 283.828 135.016 283.803C135.126 283.776 135.224 283.711 135.295 283.617C135.365 283.523 135.404 283.406 135.404 283.286C135.404 283.166 135.365 283.049 135.295 282.955C135.224 282.861 135.126 282.795 135.016 282.769C128.431 282.795 84.96 283.929 80.7356 284.433ZM101.48 266.415C101.63 266.415 101.774 266.351 101.881 266.237C101.987 266.124 102.046 265.97 102.046 265.81C102.046 265.649 101.987 265.495 101.881 265.382C101.774 265.269 101.63 265.205 101.48 265.205C99.6156 265.205 92.866 264.777 91.2848 264.852C91.0094 264.852 90.7453 264.969 90.5505 265.177C90.3558 265.385 90.2464 265.667 90.2464 265.961C90.2464 266.255 90.3558 266.537 90.5505 266.745C90.7453 266.953 91.0094 267.07 91.2848 267.07C92.8424 267.271 99.5212 266.591 101.48 266.415ZM76.2516 269.64H66.08C65.8601 269.651 65.6469 269.725 65.463 269.854C65.279 269.984 65.131 270.163 65.0345 270.375C64.9379 270.586 64.8964 270.821 64.9143 271.055C64.9321 271.29 65.0087 271.515 65.136 271.707C65.7732 272.715 66.2688 271.933 76.2988 271.026C76.4233 270.963 76.5277 270.862 76.5991 270.735C76.6706 270.609 76.706 270.464 76.701 270.317C76.6959 270.169 76.6507 270.027 76.5709 269.907C76.4911 269.787 76.3801 269.694 76.2516 269.64ZM36.0136 283.097C36.5092 283.097 43.6836 282.265 45.2648 282.19C45.4401 282.19 45.6081 282.115 45.7321 281.983C45.856 281.851 45.9256 281.671 45.9256 281.484C45.9256 281.297 45.856 281.118 45.7321 280.985C45.6081 280.853 45.4401 280.779 45.2648 280.779C44.3444 280.779 36.3676 281.131 35.8248 281.409C35.6807 281.501 35.5647 281.636 35.4908 281.798C35.4169 281.959 35.3882 282.14 35.4081 282.318C35.4281 282.496 35.4958 282.665 35.6032 282.803C35.7106 282.941 35.8531 283.043 36.0136 283.097Z" fill="black"/>
<path d="M119.298 239.4H119.676C129.706 238.442 129.352 239.173 129.777 238.669C129.855 238.57 129.907 238.45 129.925 238.322C129.944 238.194 129.93 238.063 129.883 237.944C129.837 237.824 129.761 237.72 129.663 237.644C129.565 237.567 129.449 237.521 129.328 237.51C125.812 237.51 122.508 237.182 119.346 237.334C118 237.359 118.118 239.4 119.298 239.4ZM66.5288 217.4C66.2721 217.4 66.026 217.509 65.8446 217.703C65.6631 217.897 65.5612 218.159 65.5612 218.434C65.5612 218.708 65.6631 218.97 65.8446 219.164C66.026 219.358 66.2721 219.467 66.5288 219.467C69.9036 219.467 83.0488 218.182 86.2348 217.829C86.3857 217.798 86.5218 217.712 86.6198 217.585C86.7177 217.459 86.7712 217.3 86.7712 217.136C86.7712 216.972 86.7177 216.813 86.6198 216.686C86.5218 216.56 86.3857 216.474 86.2348 216.443C82.9544 216.72 69.7856 217.098 66.5288 217.4ZM64.924 223.297C64.7341 223.347 64.568 223.47 64.4569 223.642C64.3457 223.814 64.2972 224.023 64.3204 224.23C64.3435 224.438 64.4369 224.629 64.5828 224.768C64.7287 224.907 64.9172 224.984 65.1128 224.986C68.8416 224.986 83.4736 223.574 87.1552 223.549C87.3179 223.549 87.474 223.48 87.589 223.357C87.7041 223.234 87.7688 223.068 87.7688 222.894C87.7688 222.72 87.7041 222.553 87.589 222.431C87.474 222.308 87.3179 222.239 87.1552 222.239C79.731 222.064 72.3042 222.418 64.924 223.297ZM85.2672 227.329C79.091 227.234 72.9146 227.495 66.7648 228.11C65.632 228.261 65.5848 230.101 66.7648 230.101C68.8652 230.101 80.3348 228.841 85.2908 228.64C85.3713 228.638 85.4508 228.619 85.5247 228.585C85.5985 228.55 85.6653 228.501 85.7212 228.439C85.7771 228.377 85.821 228.304 85.8504 228.223C85.8798 228.143 85.8941 228.058 85.8926 227.972C85.891 227.886 85.8736 227.801 85.8413 227.722C85.8091 227.643 85.7626 227.572 85.7045 227.512C85.6464 227.452 85.5779 227.406 85.5029 227.374C85.4278 227.343 85.3477 227.327 85.2672 227.329ZM93.0316 173.048C94.188 173.048 105.964 171.738 108.277 171.562C108.44 171.562 108.596 171.492 108.711 171.37C108.826 171.247 108.891 171.08 108.891 170.906C108.891 170.733 108.826 170.566 108.711 170.443C108.596 170.32 108.44 170.251 108.277 170.251C107.121 170.251 94.4948 170.654 93.1024 170.755C91.71 170.856 91.71 173.048 93.0316 173.048ZM95.4624 178.139C99.1676 178.139 113.611 176.677 117.269 176.425C117.402 176.396 117.522 176.319 117.608 176.206C117.694 176.094 117.741 175.953 117.741 175.808C117.741 175.662 117.694 175.522 117.608 175.409C117.522 175.296 117.402 175.219 117.269 175.19C113.587 175.367 99.0496 175.442 95.4388 175.846C95.1817 175.889 94.9479 176.03 94.78 176.243C94.6121 176.455 94.5214 176.725 94.5242 177.003C94.5271 177.281 94.6234 177.549 94.7956 177.757C94.9678 177.966 95.2044 178.101 95.4624 178.139Z" fill="black"/>
</svg>
