<svg width="671" height="604" viewBox="0 0 671 604" fill="none" xmlns="http://www.w3.org/2000/svg">
<path d="M377.554 509.381C377.286 509.458 377.058 509.641 376.921 509.892C376.783 510.142 376.748 510.439 376.822 510.717C376.896 510.994 377.073 511.23 377.315 511.372C377.557 511.514 377.843 511.551 378.111 511.475C386.918 509.477 395.174 505.441 402.262 499.67C429.201 479.057 427.807 449.816 443.141 423.066C455.409 402.669 466.177 405.016 465.341 402.381C465.31 402.276 465.258 402.18 465.19 402.097C465.121 402.015 465.036 401.947 464.942 401.9C464.847 401.853 464.744 401.826 464.638 401.822C464.533 401.817 464.428 401.836 464.33 401.875C416.098 420.25 443.35 485.772 377.554 509.381ZM572.749 445.195C574.108 443.715 575.467 442.163 576.791 440.61C587.037 427.723 594.216 407.759 593.519 393.067C593.501 392.908 593.442 392.758 593.347 392.632C593.252 392.507 593.126 392.411 592.982 392.355C592.838 392.299 592.681 392.285 592.53 392.315C592.379 392.345 592.239 392.418 592.125 392.525C591.08 393.572 594.007 399.348 586.654 417.543C579.684 434.798 573.585 439.203 566.72 447.253C560.569 454.609 555.894 463.16 552.968 472.408C550.042 481.655 548.924 491.414 549.678 501.114C549.718 501.318 549.825 501.501 549.98 501.633C550.136 501.765 550.331 501.837 550.532 501.837C550.733 501.837 550.927 501.765 551.083 501.633C551.239 501.501 551.345 501.318 551.385 501.114C551.147 490.786 552.915 480.513 556.585 470.907C560.255 461.301 565.751 452.557 572.749 445.195ZM266.766 289.315C270.251 286.824 270.007 279.207 266.766 276.392C265.849 275.625 264.781 275.078 263.637 274.788C262.493 274.498 261.301 274.472 260.146 274.714C258.992 274.955 257.903 275.457 256.957 276.184C256.01 276.91 255.231 277.844 254.673 278.919C254.026 280.598 253.909 282.447 254.34 284.199C254.77 285.951 255.726 287.517 257.069 288.672C258.412 289.827 260.074 290.512 261.816 290.627C263.558 290.743 265.291 290.283 266.766 289.315ZM257.182 281.048C258.227 276.933 265.093 276.355 266.138 280.471C266.835 283.287 266.522 285.272 265.128 286.355C264.29 286.895 263.337 287.213 262.353 287.282C261.368 287.352 260.382 287.17 259.482 286.752C258.539 286.204 257.8 285.344 257.383 284.311C256.966 283.277 256.896 282.129 257.182 281.048ZM385.848 222.53C385.714 222.52 385.58 222.539 385.453 222.586C385.327 222.632 385.211 222.705 385.112 222.8C385.014 222.895 384.936 223.009 384.883 223.137C384.829 223.265 384.802 223.402 384.802 223.541C384.802 227.151 378.913 230.761 377.832 231.122C377.625 231.175 377.445 231.311 377.334 231.5C377.223 231.69 377.189 231.918 377.24 232.133C377.291 232.348 377.422 232.534 377.605 232.649C377.788 232.764 378.008 232.799 378.216 232.747C387.381 230.797 388.775 222.458 385.848 222.53ZM373.616 217.007C373.197 216.754 371.35 215.347 370.688 214.805C370.688 214.336 372.326 208.307 372.64 207.152C372.953 205.997 371.525 205.708 371.141 206.646C369.683 209.573 368.516 212.645 367.656 215.816C367.935 216.863 372.779 218.234 373.128 218.234C373.273 218.255 373.421 218.225 373.548 218.149C373.674 218.074 373.774 217.956 373.829 217.816C373.885 217.676 373.894 217.52 373.856 217.374C373.817 217.227 373.733 217.098 373.616 217.007ZM362.115 197.658C362.065 197.345 361.91 197.062 361.677 196.857C361.444 196.653 361.148 196.541 360.843 196.541C360.538 196.541 360.242 196.653 360.009 196.857C359.776 197.062 359.621 197.345 359.571 197.658C359.438 200.147 359.438 202.641 359.571 205.13C359.789 205.5 360.121 205.784 360.512 205.937C360.904 206.091 361.334 206.104 361.734 205.976C362.134 205.847 362.481 205.584 362.721 205.228C362.96 204.873 363.078 204.444 363.056 204.011C362.573 201.924 362.259 199.799 362.115 197.658ZM386.475 203.975C386.028 201.905 385.714 199.807 385.534 197.694C385.534 197.339 385.398 197 385.157 196.749C384.915 196.499 384.587 196.358 384.245 196.358C383.903 196.358 383.575 196.499 383.333 196.749C383.091 197 382.955 197.339 382.955 197.694C382.829 200.098 382.829 202.509 382.955 204.914C382.975 205.193 383.054 205.465 383.186 205.709C383.318 205.954 383.5 206.165 383.72 206.329C383.939 206.493 384.191 206.604 384.457 206.656C384.723 206.708 384.996 206.698 385.258 206.628C385.52 206.559 385.764 206.43 385.973 206.252C386.181 206.073 386.35 205.85 386.466 205.597C386.582 205.344 386.643 205.067 386.645 204.787C386.646 204.507 386.588 204.23 386.475 203.975Z" fill="black"/>
<path d="M659.211 157.807C658.967 135.317 651.683 126.436 629.205 127.122C622.793 127.122 508.45 128.313 500.26 128.602C494.769 128.604 489.337 129.771 484.299 132.032C481.406 133.223 466.281 141.057 464.609 145.208C462.796 148.168 464.922 232.498 464.609 249.898C462.187 248.47 459.698 247.169 457.151 245.999C456.69 243.628 455.713 241.397 454.294 239.476C452.874 237.556 451.05 235.996 448.961 234.917C445.755 233.617 441.642 235.169 439.273 232.823C436.903 230.476 441.154 229.213 441.607 225.603C441.593 223.1 441.313 220.606 440.771 218.166C438.67 205.08 435.737 192.152 431.989 179.467C428.852 169.034 425.577 160.19 416.55 154.522C416.55 136.977 414.843 34.1646 413.902 28.7135C412.974 23.3336 410.204 18.4809 406.101 15.0459C401.997 11.6109 396.836 9.82421 391.563 10.0137C391.214 10.0137 151.377 10.0137 151.098 10.3025C141.514 16.2229 138.935 29.4355 138.308 39.1825C138.099 44.056 142.211 142.465 143.849 173.727C126.877 174.088 41.1462 176.471 36.2323 179.178C25.1152 181.994 12.8132 190.008 10.4085 203.04C8.90995 211.416 11.9419 372.313 12.9526 379.93C13.6763 388.158 17.2252 395.843 22.9545 401.59C29.1926 407.258 37.696 408.305 45.1888 408.594L204.209 405.489C188.666 441.95 170.753 493.645 158.904 525.81C158.849 525.902 158.819 526.009 158.819 526.117C158.819 526.226 158.849 526.332 158.904 526.424C162.111 529.687 165.612 532.625 169.359 535.196C163.679 555.304 164.306 556.423 163.051 558.048C152.283 571.73 139.284 579.708 126.459 581.007C120.5 581.693 114.61 582.776 112.519 588.769C110.811 594.22 115.342 597.866 120.639 599.382C124.124 600.357 147.892 605.808 151.412 606.241C154.531 606.783 157.731 606.045 160.333 604.184C162.842 602.27 171.102 592.162 174.273 589.13C168.523 618.01 164.515 608.804 178.211 614.978C178.402 615.083 178.614 615.144 178.83 615.154C179.047 615.165 179.263 615.126 179.463 615.039C179.663 614.953 179.842 614.822 179.987 614.655C180.132 614.488 180.24 614.29 180.302 614.075C182.742 606.855 199.261 565.593 205.987 554.871C207.625 598.48 207.346 596.206 207.938 596.386C210.273 597 212.817 597.577 215.431 598.119C215.431 604.184 215.605 610.393 216.093 617.18C216.093 617.396 215.814 617.757 215.536 618.335C206.893 637.973 197.204 645.987 186.68 650.825C182.01 652.991 175.563 655.951 175.737 662.63C175.737 668.406 181.452 670.247 186.993 670.03C195.323 669.741 206.091 668.586 210.97 668.333C224.91 667.467 225.259 664.723 231.183 652.341C232.542 649.489 234.145 646.096 235.052 644.435C236.69 664.723 234.529 667.72 237.212 667.575C244.496 667.178 247.667 669.236 247.667 666.528C247.946 659.092 251.152 629.851 252.825 622.667C252.825 621.836 252.267 621.367 251.431 621.187C252.477 614.472 254.916 601.26 255.23 598.841C256.972 598.588 258.715 598.299 260.074 597.974C260.457 597.974 260.074 599.888 265.964 574.726C308.271 592.018 353.402 596.169 393.898 586.314C395.327 592.054 405.677 631.186 411.323 648.334C413.247 653.936 415.809 659.281 418.955 664.254C419.757 665.048 421.116 666.456 422.44 666.456C423.764 666.456 425.228 664.543 425.577 662.593C425.925 660.644 420.454 603.714 418.607 583.173C426.887 581.049 434.916 577.986 442.548 574.04L453.84 612.884C454.17 613.462 454.668 613.919 455.262 614.19C455.857 614.46 456.518 614.53 457.153 614.391C457.788 614.251 458.365 613.909 458.802 613.412C459.239 612.915 459.515 612.288 459.59 611.62L458.51 565.087C463.786 561.525 468.838 557.619 473.635 553.391C475.813 555.572 478.262 557.441 480.918 558.95C481.191 559.106 481.513 559.145 481.813 559.057C482.113 558.969 482.368 558.762 482.521 558.481C485.42 553.942 488.671 549.655 492.245 545.665C491.548 550.322 490.188 559.853 490.014 562.813C490.009 563.004 490.042 563.194 490.111 563.371C490.179 563.549 490.281 563.71 490.412 563.845C490.542 563.98 490.698 564.086 490.869 564.157C491.04 564.228 491.224 564.262 491.408 564.257C495.109 564.137 498.804 564.637 502.351 565.737C490.99 571.405 485.797 576.206 486.494 580.177C487.856 587.268 489.767 594.234 492.21 601.007C494.092 606.638 496.043 612.487 501.898 614.941C528.732 626.71 568.601 618.118 595.54 606.386C618.401 597.108 621.747 582.09 619.726 560.864C619.308 556.82 614.777 556.351 605.263 556.604L628.438 526.244C635.408 517.616 629.344 517.905 627.149 500.974C629.248 504.196 631.77 507.099 634.642 509.602C634.812 509.74 635.009 509.841 635.219 509.896C635.429 509.952 635.647 509.963 635.861 509.926C636.802 509.746 636.07 510.251 644.713 494.151C644.878 493.857 644.94 493.514 644.889 493.179C644.838 492.844 644.678 492.537 644.434 492.31C640.636 489.061 631.47 481.48 631.47 481.48C636.195 480.322 640.85 478.875 645.41 477.148C646.497 476.857 647.482 476.251 648.247 475.4C649.013 474.55 649.528 473.49 649.732 472.346C650.185 469.531 650.22 412.818 650.289 405.092C650.289 403.829 648.338 403.468 648.129 404.839C644.051 433.467 625.337 457.293 601.43 464.404C602.196 461.192 604.148 454.224 603.068 452.311C599.126 449.741 594.932 447.611 590.556 445.957C594.913 443.394 604.984 436.716 605.716 434.658C606.169 433.467 603.939 377.764 603.834 371.664C603.817 371.412 603.723 371.173 603.567 370.98C603.41 370.787 603.198 370.651 602.962 370.591C602.725 370.531 602.477 370.55 602.252 370.645C602.026 370.741 601.836 370.907 601.708 371.122C594.961 384.923 584.979 396.752 572.678 405.525C571.25 406.536 560.969 412.204 560.167 412.962C557.588 415.525 560.794 418.666 562.154 420.651C563.129 422.023 566.475 426.68 567.137 427.655C554.87 429.207 551.629 424.839 551.002 427.655C549.796 431.332 548.17 434.847 546.157 438.124C546.876 441.288 547.796 444.399 548.911 447.437C546.868 447.786 544.785 447.786 542.742 447.437C542.378 447.356 541.998 447.419 541.676 447.612C541.354 447.806 541.113 448.117 541 448.484C540.024 451.769 539.257 454.513 538.56 457.076C534.336 449.655 529.681 442.506 524.62 435.669C522.146 416.103 513.224 393.251 494.37 390.219C508.554 384.082 517.859 368.306 520.09 352.314C526.781 352.314 623.455 352.025 627.358 352.314C648.512 352.928 657.956 344.552 659.943 322.207C660.744 313.29 659.211 159.432 659.211 157.807ZM177.967 587.614C178.055 587.231 178 586.829 177.812 586.487C177.625 586.145 177.319 585.89 176.957 585.773C174.134 584.69 171.973 587.253 170.405 589.094C166.435 594.099 162.076 598.76 157.371 603.028C154.757 604.328 124.333 597.794 120.534 596.567C118.49 596.087 116.711 594.789 115.586 592.956C115.146 591.624 115.194 590.171 115.721 588.873C116.247 587.575 117.217 586.523 118.443 585.917C121.127 584.22 123.113 584.365 130.641 582.921C138.169 581.477 145.626 580.069 158.73 567.289C160.556 565.478 162.256 563.536 163.818 561.477C165.994 566.488 169.657 570.649 174.273 573.354C180.458 576.199 187.365 576.895 193.963 575.34C190.478 582.56 180.86 605.122 178.455 612.017C176.538 611.223 174.587 610.501 172.67 609.924C174.829 602.593 176.597 595.145 177.967 587.614ZM484.02 389.93C479.118 390.148 474.25 390.873 469.487 392.096C453.878 393.924 438.184 394.864 422.475 394.912C420.175 380.472 420.872 383.143 420.279 379.136C420.035 377.403 419.687 375.021 420.907 374.263C437.6 366.537 454.955 359.534 471.579 351.989C475.064 354.624 475.342 354.299 475.656 354.083C475.805 353.916 475.888 353.697 475.888 353.469C475.888 353.241 475.805 353.022 475.656 352.855C474.296 351.432 472.865 350.082 471.369 348.812C457.991 336.419 448.672 320.015 444.709 301.882C444.663 301.667 444.536 301.479 444.356 301.361C444.177 301.242 443.959 301.203 443.751 301.25C443.543 301.298 443.362 301.43 443.247 301.616C443.133 301.802 444.663 301.667 444.709 301.882C451.729 322.207 455.509 338.224 469.662 350.473L421.604 371.05C420.214 371.472 418.993 372.345 418.119 373.541C415.713 372.863 413.54 371.5 411.846 369.606C402.785 362.061 399.16 367.223 387.451 376.826C386.319 377.71 385.247 378.675 384.244 379.714C378.054 374.011 371.886 368.283 365.739 362.53C364.171 360.148 349.882 309.102 344.027 288.597C348.553 277.23 355.855 267.278 365.216 259.717C366.299 263.141 367.663 266.463 369.294 269.645C371.908 272.244 375.288 270.981 378.564 270.15C377.661 272.09 377.141 274.197 377.033 276.348C376.925 278.499 377.232 280.651 377.937 282.677C380.404 288.407 384.257 293.381 389.123 297.117C401.042 307.947 400.45 307.658 401.147 307.658C401.468 307.642 401.773 307.504 402.004 307.272C402.235 307.039 402.376 306.727 402.401 306.395C403.586 293.796 407.489 290.33 418.502 286.323C424.525 284.286 429.621 280.039 432.83 274.38C436.04 268.722 437.141 262.043 435.927 255.602C443.211 255.659 450.468 254.688 457.499 252.714C457.831 252.636 458.12 252.426 458.303 252.128C458.486 251.831 458.548 251.47 458.475 251.126C458.475 250.512 458.231 249.79 458.057 249.032C508.903 274.627 539.885 354.372 498.866 384.01C494.405 387.104 489.333 389.127 484.02 389.93ZM495.73 394.046C504.686 396.031 512.179 403.829 517.058 417.547C540.338 482.707 486.076 561.658 418.711 579.997C418.293 575.629 415.993 550.286 415.54 548.409C415.206 546.752 414.286 545.284 412.961 544.294C408.674 541.839 401.321 544.546 397.418 546.929C393.697 549.488 390.372 552.616 387.555 556.207C387.555 557.362 392.434 579.13 393.48 583.57C351.123 592.746 307.096 588.83 266.87 572.307C273.073 545.593 281.298 509.024 283.598 497.689C307.574 505.414 341.274 504.692 341.623 504.656C341.734 504.625 341.833 504.557 341.903 504.463C341.974 504.368 342.012 504.252 342.012 504.132C342.012 504.013 341.974 503.897 341.903 503.802C341.833 503.708 341.734 503.64 341.623 503.609C322.281 496.931 305.588 479.711 294.645 455.091C277.813 418.305 242.893 418.738 229.301 437.041C209.646 463.466 206.475 540.359 206.161 549.636C204.941 551.947 197.936 566.134 195.288 571.91C174.378 577.073 168.418 564.69 165.874 559.383C165.456 558.481 165.665 560.864 172.147 537.146C175.632 538.915 200.411 547.976 200.446 545.305C200.724 514.62 207.903 441.625 227.35 424.839C241.29 412.998 271.435 415.056 284.783 425.308C293.268 433.331 300.209 442.947 305.239 453.647C316.426 478.52 335.698 496.967 357.096 501.587C384.523 499.096 416.341 453.827 425.437 424.875C442.235 402.818 469.941 390.183 495.73 394.046ZM550.27 540.864C550.316 541.08 550.443 541.267 550.623 541.386C550.802 541.504 551.02 541.544 551.228 541.496C551.436 541.448 551.617 541.317 551.732 541.13C551.846 540.944 551.884 540.719 551.838 540.503C549.643 528.879 543.439 518.843 539.536 508.013C532.775 489.494 537.689 469.603 543.404 450.795C545.954 451.288 548.588 450.934 550.932 449.784C552.849 448.232 551.315 445.596 549.155 438.954C550.931 436.171 552.327 433.145 553.302 429.965C558.749 431.3 564.413 431.374 569.89 430.182C570.103 430.125 570.3 430.018 570.465 429.868C570.63 429.718 570.758 429.53 570.84 429.319C570.921 429.108 570.954 428.88 570.934 428.653C570.914 428.427 570.843 428.208 570.727 428.016C568.392 424.839 562.223 416.139 561.91 415.489C561.596 414.839 561.91 414.911 562.92 414.442C579.578 406.589 593.238 393.215 601.743 376.429C602.161 388.233 603.521 432.167 603.137 433.936C597.723 437.996 592.013 441.616 586.061 444.766C585.801 444.915 585.589 445.14 585.453 445.413C585.317 445.686 585.262 445.995 585.296 446.301C585.33 446.606 585.45 446.895 585.642 447.129C585.834 447.363 586.089 447.534 586.374 447.618C591.305 449.364 596.085 451.538 600.663 454.116C601.29 455.163 599.095 463.43 598.711 465.56L595.226 466.282C594.88 466.376 594.581 466.604 594.393 466.92C594.205 467.236 594.141 467.615 594.216 467.978C595.122 474.368 597.178 490.108 597.178 490.108C587.176 480.469 587.246 475.126 585.085 474.91C584.871 474.882 584.653 474.91 584.452 474.992C584.251 475.074 584.073 475.207 583.935 475.379C567.548 495.075 558.348 520.101 557.937 546.099C557.976 546.294 558.079 546.469 558.228 546.595C558.377 546.721 558.563 546.789 558.756 546.789C558.948 546.789 559.135 546.721 559.284 546.595C559.433 546.469 559.536 546.294 559.575 546.099C560.887 521.5 569.697 497.966 584.736 478.88C588.202 485.066 592.753 490.526 598.154 494.981C598.384 495.193 598.673 495.324 598.979 495.356C599.285 495.388 599.593 495.319 599.86 495.159C600.126 494.999 600.337 494.756 600.462 494.465C600.588 494.174 600.621 493.849 600.558 493.537C600.558 493.537 598.049 475.956 597.073 468.809C620.806 464.441 641.193 443.539 648.059 416.897C648.059 431.734 647.571 468.52 647.571 468.881C647.571 471.227 647.571 473.465 645.55 474.512C639.834 476.592 634.018 478.363 628.125 479.819C627.883 479.885 627.664 480.017 627.488 480.201C627.313 480.385 627.188 480.614 627.128 480.865C627.067 481.116 627.073 481.379 627.144 481.627C627.215 481.875 627.349 482.098 627.532 482.274C629.17 483.646 638.58 491.624 641.681 494.187C641.681 494.187 637.43 502.598 635.269 506.75C631.735 503.363 628.809 499.354 626.626 494.909C626.485 494.656 626.267 494.459 626.007 494.346C625.747 494.234 625.458 494.213 625.185 494.287C624.912 494.36 624.671 494.525 624.496 494.754C624.322 494.984 624.226 495.267 624.221 495.559C625.197 519.674 632.655 516.533 626.487 524.439C605.228 552.127 601.499 561.08 578.603 568.084C583.203 546.424 598.955 537.651 605.263 522.02C608.748 513.464 607.981 503.97 610.734 495.378C612.651 489.415 615.785 483.95 619.922 479.352C624.059 474.755 629.103 471.135 634.711 468.736C634.915 468.665 635.082 468.512 635.177 468.312C635.272 468.113 635.286 467.882 635.217 467.671C635.147 467.461 635 467.287 634.807 467.189C634.614 467.091 634.392 467.076 634.189 467.148C626.885 469.817 620.441 474.535 615.573 480.775C610.706 487.015 607.607 494.533 606.622 502.49C605.124 513.573 605.437 519.024 598.746 528.735C591.358 539.384 579.265 548.806 575.362 568.986C569.301 570.549 563.099 571.444 556.856 571.658C556.125 565.196 552.291 561.405 549.573 561.261C547.064 556.712 520.612 515.017 510.854 505.883C521.645 485.768 526.606 462.855 525.143 439.893C529.325 446.282 536.469 458.267 537.724 460.614C525.561 509.204 545.426 516.497 550.27 540.864ZM495.311 542.453C495.31 542.198 495.239 541.949 495.106 541.735C494.973 541.521 494.783 541.351 494.56 541.244C494.336 541.138 494.088 541.1 493.845 541.135C493.601 541.17 493.373 541.277 493.186 541.442C488.729 546.024 484.682 551.014 481.093 556.351C479.04 555.111 477.114 553.659 475.342 552.019C483.765 544.437 491.403 535.968 498.134 526.749C535.145 572.74 533.368 571.405 534.413 570.538C534.495 570.481 534.565 570.406 534.618 570.32C534.672 570.234 534.708 570.137 534.724 570.036C534.74 569.934 534.737 569.831 534.713 569.731C534.69 569.631 534.647 569.538 534.587 569.455C532.148 565.629 507.3 533.355 499.737 524.294C503.328 519.154 506.611 513.789 509.565 508.23C523.505 522.345 545.147 559.492 547.168 562.993C545.244 565.861 544.344 569.333 544.624 572.813C540.222 574.086 535.596 574.296 531.102 573.426C525.77 572.343 505.836 562.199 492.767 561.802C493.604 557.867 494.928 545.846 495.416 542.453H495.311ZM404.074 547.037H404.667C407.385 546.388 411.637 545.413 412.647 548.265C413.17 550.214 423.695 657.9 423.695 661.222C423.751 661.745 423.695 662.275 423.533 662.773C423.37 663.272 423.104 663.728 422.754 664.11C413.693 660.5 391.389 564.726 390.517 556.604C394.03 552.103 398.745 548.776 404.074 547.037ZM32.9913 376.573C32.9913 368.306 27.6941 204.412 28.2168 198.492C29.1229 187.337 32.9913 182.319 41.5295 181.164C50.5557 179.359 134.823 176.868 144.023 176.615C144.232 180.225 144.407 182.752 144.476 183.221C144.863 186.062 146.17 188.681 148.184 190.649C150.199 192.617 152.799 193.817 155.559 194.051C155.559 193.69 153.259 194.051 225.259 194.304C225.259 205.567 225.921 258.49 225.956 260.981C205.464 261.775 184.345 262.642 180.302 263.039C179.745 263.039 179.257 264.085 179.466 264.591C185.53 280.114 212.538 343.145 220.101 359.317C220.806 361.155 222.018 362.737 223.586 363.866C224.562 365.382 225.712 367.079 227.071 368.776C216.023 377.909 212.051 388.017 205.638 402.818C176.12 403.468 56.4802 406.031 53.7967 405.922C46.3388 405.598 41.0765 403.359 37.8006 399.099C32.817 392.962 33.0261 384.587 32.9913 376.573ZM436.171 232.39C436.903 235.133 439.656 236.613 443.908 236.722C451.226 236.397 454.363 242.931 455.687 250.44C448.563 251.882 441.336 252.715 434.08 252.931C433.87 252.933 433.663 252.986 433.476 253.085C433.289 253.184 433.127 253.326 433.002 253.501C432.877 253.676 432.793 253.878 432.756 254.093C432.719 254.307 432.731 254.527 432.79 254.736C433.903 258.857 433.914 263.213 432.821 267.34C431.729 271.467 429.574 275.208 426.587 278.164C417.213 287.514 402.192 282.352 399.997 303.904C396.86 301.088 385.255 290.872 382.885 287.875C378.808 283.002 377.17 274.915 381.352 269.825C390.307 268.309 399.357 267.477 408.43 267.334C408.634 267.334 408.829 267.251 408.972 267.102C409.116 266.953 409.197 266.751 409.197 266.54C409.197 266.33 409.116 266.128 408.972 265.979C408.829 265.83 408.634 265.746 408.43 265.746C397.992 264.979 387.501 265.757 377.274 268.056C373.371 269.176 371.454 269.97 369.712 266.179C368.841 264.266 363.648 247.877 362.742 244.844C361.139 240.909 362.115 242.101 365.042 240.223C367.91 242.734 371.13 244.779 374.591 246.288C374.591 246.721 376.403 252.461 376.682 253.508C376.8 254.376 377.219 255.169 377.86 255.74C378.501 256.311 379.321 256.621 380.167 256.613C388.294 257.386 396.482 256.154 404.06 253.016C411.638 249.879 418.391 244.926 423.764 238.563C423.871 238.411 423.92 238.224 423.901 238.038C423.883 237.852 423.798 237.679 423.664 237.553C423.529 237.428 423.355 237.358 423.174 237.358C422.993 237.357 422.819 237.427 422.684 237.552C417.286 243.203 410.802 247.615 403.651 250.501C396.5 253.387 388.843 254.682 381.178 254.302C378.738 254.122 379.052 254.663 376.996 247.082C386.405 249.826 388.775 246.108 385.429 249.537C385.32 249.672 385.26 249.842 385.259 250.018C385.258 250.194 385.315 250.365 385.423 250.502C385.53 250.638 385.679 250.732 385.846 250.767C386.013 250.802 386.186 250.775 386.335 250.692C399.012 240.875 408.26 227.05 412.682 211.307C412.714 211.205 412.726 211.098 412.717 210.991C412.708 210.884 412.678 210.781 412.629 210.686C412.58 210.592 412.513 210.509 412.432 210.442C412.352 210.375 412.259 210.325 412.159 210.296C410.347 209.647 411.567 213.365 403.063 227.769C399.578 213.329 401.913 198.059 398.15 183.546C398.099 183.341 397.971 183.164 397.795 183.056C397.618 182.947 397.407 182.916 397.209 182.969C397.01 183.021 396.84 183.154 396.735 183.336C396.63 183.519 396.6 183.738 396.651 183.943C397.261 187.015 397.657 190.127 397.836 193.257C390.413 185.64 374.73 173.474 362.359 176.254C359.693 176.339 357.167 177.508 355.328 179.508C353.489 181.508 352.484 184.178 352.531 186.94C349.534 182.752 351.625 176.362 354.343 172.825C361.522 163.114 374.277 158.385 386.998 154.775C398.254 151.67 413.309 152.103 421.848 162.644C425.551 167.905 428.227 173.865 429.724 180.189C434.175 194.44 437.28 209.105 438.994 223.978C439.127 224.578 439.099 225.204 438.915 225.789C438.731 226.374 438.397 226.896 437.948 227.3C437.252 227.916 436.723 228.71 436.412 229.602C436.1 230.494 436.017 231.454 436.171 232.39ZM222.645 358.451C219.369 351.231 186.993 276.865 181.836 264.591C193.371 264.591 323.536 259.645 325.801 259.573C330.227 274.302 356.016 363.252 356.016 364.01C356.016 364.01 325.208 364.804 308.585 365.49C280.531 350.834 254.568 352.422 235.679 362.783C225.015 362.314 224.527 362.53 222.645 358.451ZM355.075 208.708C354.587 197.878 355.075 190.333 356.713 189.575C362.707 186.759 373.894 185.965 386.335 190.044C387.904 190.586 392.922 193.293 397.975 195.495C398.533 207.047 397.975 219.285 401.46 230.476C398.38 236.072 394.423 241.098 389.751 245.35C368.666 248.238 356.016 230.765 355.005 208.708H355.075ZM387.067 424.586C386.231 426.247 400.415 437.293 401.948 438.485C406.967 443.394 400.833 446.066 395.745 441.337C367.865 415.381 344.097 385.634 313.116 367.873C331.168 367.259 353.507 366.573 357.34 366.537C361.209 370.4 406.13 413.973 417.735 424.297C385.325 424.55 387.381 424.009 386.998 424.586H387.067ZM421.29 424.081C420.941 423.756 362.045 368.631 359.78 365.888C358.455 363.577 334.026 277.695 328.415 260.403C331.857 262.835 334.41 266.395 335.664 270.511C337.755 276.684 361.487 358.992 361.592 359.389C361.877 361.388 362.739 363.251 364.066 364.732C373.232 373.866 412.124 410.399 424.775 421.229C424.043 422.167 423.311 423.106 422.614 424.081H421.29ZM418.746 389.389C412.682 388.883 410.765 388.161 409.267 390.074C408.779 390.869 407.385 392.638 405.607 392.241C405.299 392.166 405.009 392.027 404.755 391.831C404.502 391.635 404.29 391.387 404.133 391.102C403.976 390.818 403.877 390.502 403.843 390.177C403.809 389.851 403.84 389.521 403.935 389.208C405.642 387.547 407.42 386.103 409.023 384.335C409.108 384.21 409.151 384.059 409.145 383.906C409.138 383.753 409.082 383.607 408.986 383.491C408.89 383.374 408.759 383.295 408.614 383.264C408.469 383.234 408.319 383.255 408.186 383.324C406.409 384.515 404.701 386.428 402.68 387.692C402.513 387.694 402.349 387.734 402.198 387.809C402.048 387.884 401.915 387.992 401.809 388.125C401.391 388.301 400.94 388.374 400.491 388.339C400.042 388.305 399.606 388.163 399.218 387.925C398.83 387.688 398.501 387.361 398.255 386.97C398.009 386.578 397.854 386.134 397.801 385.67C397.801 382.782 400.798 380.869 402.541 378.739C403.238 378.017 402.192 376.934 401.46 377.62C399.593 379.253 397.857 381.04 396.268 382.963C394.26 383.624 392.21 384.143 390.134 384.515C389.193 384.515 390.134 385.129 386.022 381.483C390.309 377.317 394.978 373.593 399.962 370.364C408.43 364.588 409.999 374.588 417.631 375.743C417.624 380.316 417.997 384.882 418.746 389.389ZM426.587 419.135L391.493 386.645C392.766 386.385 394.023 386.047 395.257 385.634C395.229 386.418 395.377 387.198 395.69 387.912C396.003 388.626 396.473 389.255 397.061 389.749C397.649 390.243 398.34 390.588 399.08 390.757C399.819 390.927 400.586 390.915 401.321 390.724C401.46 391.49 401.772 392.211 402.232 392.828C402.691 393.445 403.285 393.941 403.964 394.275C404.644 394.609 405.39 394.772 406.142 394.751C406.893 394.73 407.63 394.526 408.291 394.154C413.1 391.88 408.291 391.013 416.062 391.735C417.073 391.735 418.153 391.952 419.199 391.988C419.513 393.685 419.826 395.237 420.175 396.717C420.259 397.012 420.433 397.271 420.673 397.453C420.912 397.636 421.202 397.732 421.499 397.728C483.811 396.356 453.213 387.439 426.517 419.135H426.587ZM342.947 284.699C339.009 271.017 336.953 259.97 329.007 257.154C329.007 257.587 331.969 256.685 228.813 260.764C228.813 243.184 228.082 200.658 227.977 194.196H352.914C351.938 209.827 352.914 226.686 363.369 238.31C362.115 238.815 359.884 239.898 359.362 240.801C360.647 246.636 362.371 252.357 364.519 257.912C355.169 264.748 347.689 273.976 342.808 284.699H342.947ZM328.624 173.113C328.624 168.059 327.509 140.876 327.265 135.894H336.151C336.151 141.021 336.814 168.096 337.023 173.077C334.235 173.005 331.412 173.041 328.624 173.113ZM277.569 174.196C277.603 164.377 276.384 81.3473 276.209 70.5173H285.096C285.096 97.9533 285.863 166.579 286.002 174.052L277.569 174.196ZM222.575 84.4519H231.497C231.497 108.17 232.229 168.059 232.403 175.171H223.969C224.004 166.291 222.784 94.3433 222.575 84.4519ZM146.916 181.633C146.428 178.565 142.385 82.4303 140.747 45.6083C140.364 34.2729 143.257 20.3383 150.61 13.8764C150.61 39.1464 153.747 178.601 154.444 191.236C152.392 190.623 150.572 189.374 149.226 187.657C147.88 185.941 147.074 183.838 146.916 181.633ZM466.665 151.634C466.378 149.277 466.923 146.893 468.198 144.919C470.926 142.694 473.856 140.748 476.945 139.107C473.46 145.605 474.367 143.8 476.214 257.876C473.339 255.607 470.349 253.498 467.257 251.559C466.909 233.364 466.734 167.229 466.769 151.634H466.665ZM497.124 191.741C498.743 189.36 500.895 187.42 503.395 186.088C505.895 184.755 508.67 184.069 511.482 184.088C525.666 184.088 530.823 201.56 533.612 215.784C536.051 226.939 536.225 240.079 544.067 249.176C580.52 283.399 583.273 235.639 605.437 237.48C612.407 238.31 617.042 244.916 622.026 249.682C624.156 252.16 627.145 253.668 630.342 253.878C633.539 254.087 636.688 252.981 639.102 250.801V302.099C630.529 302.099 521.658 301.268 509.704 301.413C506.794 295.103 503.366 289.065 499.459 283.363C499.877 278.995 497.298 195.64 497.228 191.741H497.124ZM511.064 303.868C527.095 304.12 628.822 304.409 639.381 304.409C639.396 305.784 639.478 307.158 639.625 308.525C639.651 308.815 639.778 309.086 639.984 309.286C640.19 309.485 640.459 309.6 640.74 309.608C642.797 309.608 641.856 312.893 641.507 214.989C641.507 214.75 641.415 214.521 641.252 214.351C641.089 214.182 640.867 214.087 640.636 214.087C640.405 214.087 640.183 214.182 640.02 214.351C639.856 214.521 639.765 214.75 639.765 214.989C639.765 221.415 639.381 242.642 639.346 246.83C638.547 248.135 637.46 249.225 636.175 250.01C634.89 250.796 633.444 251.256 631.954 251.351C630.465 251.446 628.975 251.174 627.607 250.558C626.238 249.941 625.031 248.998 624.082 247.804C614.01 236.974 604.043 227.949 589.476 241.884C577.557 254.627 571.006 265.385 554.626 254.375C547.994 250.714 542.995 244.526 540.686 237.119C535.18 216.65 536.713 185.063 513.433 180.875C510.321 180.545 507.178 181.012 504.28 182.233C501.382 183.454 498.817 185.392 496.81 187.878C496.81 182.391 496.427 177.048 496.217 171.489C496.217 171.259 496.129 171.039 495.972 170.876C495.816 170.714 495.603 170.623 495.381 170.623C495.159 170.623 494.947 170.714 494.79 170.876C494.633 171.039 494.545 171.259 494.545 171.489C494.545 177.482 496.357 261.161 496.914 279.536C491.544 272.256 485.368 265.653 478.514 259.862C478.514 246.108 477.329 156.796 477.189 151.273C476.98 141.237 480.849 135.425 489.77 133.006C497.089 130.913 628.682 128.819 641.193 130.588C649.488 131.671 654.227 140.082 655.412 147.374C656.876 156.435 657.294 306.214 657.329 308.2C657.608 325.889 655.586 346.069 637.813 348.559C633.805 349.137 534.657 349.39 520.264 349.245C520.709 333.586 517.581 318.039 511.133 303.868H511.064ZM409.023 22.8653C413.205 30.4463 410.835 28.3525 413.797 153.042C399.369 146.291 378.947 152.5 365.007 160.262V53.2976C365.007 52.4673 366.819 52.72 354.552 52.72C353.786 52.72 353.855 45.2834 356.434 166.254C354.343 168.21 352.525 170.458 351.032 172.933H339.323C339.323 168.24 337.998 134.956 337.859 134.667C337.819 134.479 337.717 134.312 337.571 134.193C337.424 134.075 337.243 134.013 337.057 134.017C333.292 133.886 329.523 133.971 325.766 134.27C325.655 134.349 325.566 134.458 325.511 134.585C325.456 134.712 325.435 134.853 325.452 134.992C325.452 138.602 326.08 167.915 326.324 173.113L313.185 173.402C313.847 111.743 314.091 114.992 313.185 114.92C303.741 115.317 303.532 115.137 303.532 115.859V173.619L288.198 173.944C288.198 165.893 287.013 74.9215 286.769 69.6509C286.779 69.4135 286.702 69.1808 286.554 69C286.405 68.8191 286.195 68.7033 285.967 68.6762C285.967 68.6762 275.059 68.6762 274.711 69.0372C273.7 69.8675 275.268 170.117 275.268 174.233L258.715 174.557V120.66C258.592 120.61 258.455 120.61 258.331 120.66C248.713 120.66 248.817 120.66 248.817 121.454V174.774L234.668 175.207C233.692 81.9971 232.891 83.6938 233.239 83.6938C233.241 83.4625 233.16 83.2388 233.012 83.0656C232.864 82.8924 232.66 82.7818 232.438 82.7552C232.438 82.7552 221.599 82.7552 221.251 83.044C220.066 83.8021 221.739 169.07 221.739 175.496L202.571 175.857C202.676 35.1754 203.059 41.6373 202.153 41.6373L193.615 41.9622C193.022 41.9622 193.232 33.3343 193.232 176.001C178.873 176.29 179.292 176.001 179.082 176.579C179.015 176.692 178.978 176.82 178.974 176.953C178.97 177.085 178.999 177.216 179.059 177.333C179.119 177.449 179.207 177.548 179.315 177.618C179.423 177.689 179.547 177.729 179.675 177.734C200.829 177.734 328.937 176.399 349.813 175.749C347.722 181.272 348.105 187.373 352.949 190.586V191.38C332.806 191.994 160.438 191.38 157.336 191.38C157.336 186.651 153.433 21.4935 153.398 12.2519C177.549 12.2519 390.378 12.5768 395.919 13.5154C398.636 13.9711 401.22 15.0463 403.486 16.6633C405.753 18.2803 407.644 20.3987 409.023 22.8653ZM29.1578 184.954C25.1501 190.947 24.941 198.744 24.941 206.289C24.941 207.95 29.8199 385.634 30.5518 389.966C30.9686 393.11 32.0302 396.125 33.6652 398.809C35.3002 401.493 37.4707 403.783 40.031 405.525C35.9346 405.312 31.93 404.191 28.2866 402.24C20.5499 397.836 17.6225 388.775 16.577 383.757C14.7299 374.732 12.2904 219.719 12.7086 211.704C12.4646 198.42 16.8209 191.236 29.0881 184.954H29.1578ZM551.908 593.209C565.857 592.201 579.522 588.632 592.264 582.668C601.325 578.336 612.616 571.477 617.286 566.026C618.018 583.065 614.673 594.076 597.77 602.126C575.397 612.956 522.32 626.241 499.389 610.393C497.333 608.335 492.419 592.704 490.467 585.484C500.469 592.379 529.604 595.05 551.838 593.209H551.908ZM236.724 640.5C233.797 640.247 232.403 643.28 231.427 645.482C223.272 663.532 223.377 664.687 215.083 665.265C212.469 665.445 187.865 667.539 186.052 667.539C179.71 668.008 176.19 663.496 180.686 657.973C183.248 655.97 186.093 654.388 189.119 653.28C198.808 648.623 214.142 636.313 217.522 621.078C221.02 625.335 225.792 628.258 231.079 629.381C237.624 630.109 244.225 628.708 249.967 625.374C248.643 633.172 245.576 657.467 245.193 665.084C243.156 664.863 241.108 664.766 239.059 664.795C239.024 662.738 238.362 640.645 236.655 640.5H236.724ZM249.549 621.909C245.02 625.227 239.587 626.959 234.041 626.854C231.107 626.626 228.25 625.773 225.648 624.351C223.046 622.929 220.754 620.967 218.916 618.588C218.916 617.468 218.533 605.375 218.637 598.877C229.929 599.799 241.263 600.028 252.581 599.563C252.024 602.74 250.246 615.627 249.479 621.909H249.549Z" fill="black"/>
</svg>
